<svg width="48" height="48" viewBox="0 0 48 48" fill="none" xmlns="http://www.w3.org/2000/svg">
<g clip-path="url(#clip0_1260_3958)">
<circle cx="24" cy="24" r="24" fill="black"/>
<path d="M8.71804 26.8661V21.165H10.0166V26.8661H8.71804ZM33.961 24.7361C33.961 23.3584 32.892 22.5032 31.641 22.5032C30.382 22.5032 29.321 23.3663 29.321 24.7361C29.321 26.1139 30.3899 26.9769 31.641 26.9769C32.892 26.9769 33.961 26.1059 33.961 24.7361ZM32.6783 24.7361C32.6783 25.4567 32.1952 25.8605 31.6331 25.8605C31.0709 25.8605 30.5879 25.4567 30.5879 24.7361C30.5879 24.0076 31.0709 23.6197 31.6331 23.6197C32.1952 23.6197 32.6783 24.0076 32.6783 24.7361ZM8.19544 25.227C8.19544 24.5857 7.86288 24.0947 7.26902 23.873C7.83121 23.5642 8.02916 23.1604 8.02916 22.6853C8.02916 21.8539 7.42738 21.165 6.08131 21.173H3.5V26.874H6.19216C7.54616 26.8661 8.19544 26.193 8.19544 25.227ZM6.65141 22.8516C6.65141 23.2396 6.40595 23.4613 5.93086 23.4613H4.854V22.2736H5.93086C6.36636 22.2736 6.65141 22.4636 6.65141 22.8516ZM6.77018 25.1399C6.77018 25.5121 6.50888 25.7575 6.02588 25.7575H4.854V24.5223H6.02588C6.49305 24.5223 6.77018 24.7599 6.77018 25.1399ZM19.5025 23.6672C19.1462 22.9229 18.4811 22.5111 17.4755 22.5111C16.2878 22.5111 15.2267 23.2554 15.2267 24.7361C15.2267 26.1772 16.1611 26.9769 17.4596 26.9769C18.3702 26.9769 19.1383 26.6127 19.5025 25.8288L18.4573 25.2904C18.2673 25.6388 17.9743 25.8605 17.5071 25.8605C16.9054 25.8605 16.5174 25.4329 16.5174 24.7361C16.5174 24.0393 16.9608 23.6197 17.4992 23.6197C17.9189 23.6197 18.2356 23.8097 18.4336 24.2214L19.5025 23.6672ZM38.6406 23.6672C38.2843 22.9229 37.6192 22.5111 36.6136 22.5111C35.4258 22.5111 34.3648 23.2554 34.3648 24.7361C34.3648 26.1772 35.2991 26.9769 36.5977 26.9769C37.5083 26.9769 38.2764 26.6127 38.6406 25.8288L37.5954 25.2904C37.4054 25.6388 37.1124 25.8605 36.6452 25.8605C36.0435 25.8605 35.6555 25.4329 35.6555 24.7361C35.6555 24.0393 36.0989 23.6197 36.6373 23.6197C37.057 23.6197 37.3737 23.8097 37.5716 24.2214L38.6406 23.6672ZM27.7532 26.8661L26.6684 24.9499H25.837V26.8661H24.4988V21.165H26.9139C28.2204 21.165 29.1309 21.7906 29.1309 23.0179C29.1309 23.8018 28.743 24.356 28.0541 24.6965L29.3051 26.8661H27.7532ZM25.8449 23.8176H26.8426C27.4602 23.8176 27.7611 23.4692 27.7611 23.0575C27.7611 22.5665 27.4761 22.2973 26.8426 22.2973H25.8449V23.8176ZM15.0129 26.7948V25.9001C14.9575 25.9159 14.8783 25.9317 14.7912 25.9317C14.625 25.9317 14.5379 25.8446 14.5379 25.6942V24.2135C14.5379 23.105 13.7935 22.519 12.5662 22.519C11.7665 22.519 11.0856 22.812 10.658 23.1921L11.3785 23.9997C11.6636 23.7463 12.0436 23.588 12.4158 23.588C12.9859 23.588 13.2551 23.873 13.2551 24.3402V24.4748C12.9859 24.4115 12.6454 24.3481 12.2337 24.3481C11.1964 24.3481 10.5234 24.847 10.5234 25.6704C10.5234 26.5177 11.0856 26.9611 11.9565 26.9611C12.5504 26.9611 13.0809 26.7156 13.3581 26.3989C13.5243 26.8186 13.8886 26.9294 14.2449 26.9294C14.4903 26.9373 14.7754 26.8978 15.0129 26.7948ZM13.263 25.4567C13.263 25.8446 12.8909 26.098 12.4633 26.098C12.0595 26.098 11.8615 25.8922 11.8615 25.6071C11.8615 25.3062 12.0832 25.0845 12.5346 25.0845C12.8117 25.0845 13.0572 25.132 13.263 25.1795V25.4567ZM43.2806 26.8661L41.7524 24.2135L43.1856 22.6536H41.7445L40.2321 24.3323V21.173H38.9415V26.874H40.2321V25.8446L40.8497 25.1874L41.8158 26.874H43.2806V26.8661ZM24.1584 26.8661L22.6302 24.2135L24.0633 22.6536H22.6064L21.1099 24.3323V21.173H19.8192V26.874H21.1099V25.8446L21.7275 25.1874L22.6935 26.874H24.1584V26.8661ZM44.0724 26.0743C44.3416 26.0743 44.5 26.2406 44.5 26.4939C44.5 26.7473 44.3416 26.9136 44.0724 26.9136C43.8032 26.9136 43.6448 26.7473 43.6448 26.4939C43.6448 26.2406 43.8032 26.0743 44.0724 26.0743ZM44.0724 26.8582C44.2862 26.8582 44.4287 26.7315 44.4287 26.4939C44.4287 26.2564 44.2783 26.1297 44.0724 26.1297C43.8586 26.1297 43.7161 26.2564 43.7161 26.4939C43.7082 26.7394 43.8586 26.8582 44.0724 26.8582ZM43.9061 26.2801H44.0803C44.1833 26.2801 44.2387 26.3356 44.2387 26.4147C44.2387 26.486 44.207 26.5256 44.1516 26.5494L44.2308 26.6998H44.1516L44.0803 26.5652H43.9853V26.6998H43.9061V26.2801ZM43.9853 26.3435V26.4939H44.0724C44.1278 26.4939 44.1595 26.4781 44.1595 26.4227C44.1595 26.3752 44.1358 26.3514 44.0803 26.3514H43.9853V26.3435Z" fill="white"/>
</g>
<defs>
<clipPath id="clip0_1260_3958">
<rect width="48" height="48" fill="white"/>
</clipPath>
</defs>
</svg>
