<svg width="48" height="49" viewBox="0 0 49 49" fill="none" xmlns="http://www.w3.org/2000/svg">
<path d="M24.6602 0.819336C37.9162 0.819336 48.6602 11.5654 48.6602 24.8193C48.6602 38.0754 37.9162 48.8193 24.6602 48.8193C11.4063 48.8193 0.660156 38.0743 0.660156 24.8193C0.660156 11.5654 11.4063 0.819336 24.6602 0.819336Z" fill="#F5AC37"/>
<path d="M25.5446 26.5141H34.6642C34.8586 26.5141 34.9504 26.5141 34.9644 26.2592C35.0389 25.3315 35.0389 24.3983 34.9644 23.4695C34.9644 23.2892 34.8748 23.2146 34.6793 23.2146H16.5297C16.3051 23.2146 16.2446 23.2892 16.2446 23.4998V26.1695C16.2446 26.5141 16.2446 26.5141 16.6042 26.5141H25.5446ZM33.946 20.0945C33.9719 20.0264 33.9719 19.9519 33.946 19.885C33.7937 19.5534 33.6133 19.237 33.4038 18.94C33.0884 18.4323 32.7169 17.9647 32.2935 17.5446C32.0937 17.2908 31.8626 17.0629 31.6034 16.8696C30.3052 15.7647 28.7619 14.9828 27.103 14.5897C26.266 14.4017 25.4106 14.3121 24.5531 14.3197H16.4984C16.2737 14.3197 16.2435 14.4093 16.2435 14.6048V19.9292C16.2435 20.1539 16.2435 20.2144 16.5286 20.2144H33.838C33.838 20.2144 33.9881 20.1841 34.0183 20.0945H33.9449H33.946ZM33.946 29.6342C33.6911 29.6061 33.434 29.6061 33.1791 29.6342H16.5448C16.3202 29.6342 16.2446 29.6342 16.2446 29.9345V35.1401C16.2446 35.3799 16.2446 35.4404 16.5448 35.4404H24.2248C24.592 35.4684 24.9592 35.4425 25.3188 35.3658C26.4334 35.2859 27.5296 35.044 28.5751 34.6455C28.9552 34.5137 29.3224 34.342 29.6691 34.1357H29.7739C31.5743 33.1993 33.0366 31.7284 33.9589 29.9226C33.9589 29.9226 34.0637 29.6958 33.946 29.6364V29.6342ZM13.2303 38.1393V38.0497V34.5547V33.37V29.8448C13.2303 29.6493 13.2303 29.6202 12.9905 29.6202H9.73535C9.55499 29.6202 9.48047 29.6202 9.48047 29.3804V26.5303H12.9603C13.1547 26.5303 13.2303 26.5303 13.2303 26.2754V23.4555C13.2303 23.2751 13.2303 23.2308 12.9905 23.2308H9.73535C9.55499 23.2308 9.48047 23.2308 9.48047 22.9911V20.3515C9.48047 20.1863 9.48047 20.142 9.72023 20.142H12.9451C13.1698 20.142 13.2303 20.142 13.2303 19.8569V11.7719C13.2303 11.5322 13.2303 11.4717 13.5305 11.4717H24.7799C25.5964 11.5041 26.4075 11.5937 27.2099 11.7417C28.8634 12.0473 30.4521 12.6381 31.9047 13.4816C32.8681 14.0486 33.7548 14.7333 34.5443 15.5217C35.1383 16.1384 35.674 16.8059 36.1492 17.5165C36.6211 18.2369 37.0132 19.0069 37.321 19.8115C37.3588 20.021 37.5597 20.1625 37.7692 20.1269H40.4541C40.7986 20.1269 40.7986 20.1269 40.8137 20.4574V22.9176C40.8137 23.1574 40.7241 23.2179 40.4833 23.2179H38.4129C38.2034 23.2179 38.1429 23.2179 38.158 23.4879C38.2401 24.4016 38.2401 25.3185 38.158 26.2322C38.158 26.4871 38.158 26.5173 38.4442 26.5173H40.8127C40.9174 26.6523 40.8127 26.7873 40.8127 26.9234C40.8278 27.0973 40.8278 27.2733 40.8127 27.4472V29.2627C40.8127 29.5176 40.7381 29.5932 40.5124 29.5932H37.6774C37.4798 29.5554 37.2875 29.6817 37.2421 29.8783C36.5671 31.6333 35.4871 33.2069 34.0918 34.4683C33.582 34.9274 33.0463 35.3594 32.4869 35.7579C31.8864 36.1035 31.3021 36.4631 30.6865 36.7483C29.5535 37.258 28.3655 37.6339 27.1462 37.8725C25.9884 38.0799 24.8145 38.1739 23.6362 38.1577H13.2259V38.1425L13.2303 38.1393Z" fill="#FEFEFD"/>
</svg>
