<svg width="49" height="49" viewBox="0 0 49 49" fill="none" xmlns="http://www.w3.org/2000/svg">
<g clip-path="url(#clip0_1260_3578)">
<path d="M24.6602 48.6387C37.9602 48.6387 48.6602 37.9388 48.6602 24.6387C48.6602 11.3386 37.9602 0.638672 24.6602 0.638672C11.3601 0.638672 0.660156 11.3386 0.660156 24.6387C0.660156 37.9388 11.3601 48.6387 24.6602 48.6387Z" fill="#2775CA"/>
<path d="M19.5621 38.9385C11.7621 36.1387 7.76203 27.4387 10.6622 19.7385C12.1622 15.5385 15.4622 12.3386 19.5621 10.8386C19.9622 10.6387 20.1621 10.3387 20.1621 9.83851V8.43859C20.1621 8.03851 19.9622 7.73851 19.5621 7.63867C19.462 7.63867 19.2621 7.63867 19.162 7.73851C9.66211 10.7385 4.46203 20.8387 7.46203 30.3386C9.26203 35.9385 13.5621 40.2386 19.162 42.0386C19.5621 42.2385 19.9622 42.0386 20.062 41.6385C20.1621 41.5387 20.1621 41.4386 20.1621 41.2387V39.8385C20.1621 39.5385 19.8621 39.1387 19.5621 38.9385ZM30.1622 7.73851C29.7621 7.53859 29.362 7.73851 29.2622 8.13859C29.1621 8.23867 29.1621 8.33851 29.1621 8.53867V9.93859C29.1621 10.3387 29.4621 10.7385 29.7621 10.9387C37.5621 13.7385 41.5622 22.4385 38.662 30.1387C37.162 34.3387 33.862 37.5386 29.7621 39.0386C29.362 39.2385 29.1621 39.5385 29.1621 40.0387V41.4386C29.1621 41.8387 29.362 42.1387 29.7621 42.2385C29.8622 42.2385 30.0621 42.2385 30.1622 42.1387C39.6621 39.1387 44.8622 29.0385 41.8622 19.5386C40.0622 13.8386 35.662 9.53851 30.1622 7.73851Z" fill="white"/>
<path d="M25.1465 14.9199C27.4089 14.9199 29.4121 16.6234 30.6513 18.4038C30.804 18.6232 30.7423 18.922 30.5228 19.0746L29.1458 20.032C28.8859 20.2126 28.5267 20.1081 28.3679 19.8342C27.6343 18.5689 26.4078 17.7393 25.0176 17.7393C23.204 17.7393 21.6686 19.1507 21.1437 21.1C21.0637 21.3969 21.2998 21.6729 21.6073 21.6729H26.1121C26.4742 21.6729 26.7163 22.0459 26.5686 22.3767L26.015 23.6169C25.9346 23.7971 25.7558 23.9131 25.5585 23.9131H21.4492C21.1731 23.9131 20.9492 24.1369 20.9492 24.4131V24.8955C20.9492 25.1717 21.1731 25.3955 21.4492 25.3955H26.1121C26.4742 25.3955 26.7163 25.7686 26.5686 26.0993L26.015 27.3395C25.9346 27.5197 25.7558 27.6357 25.5585 27.6357H21.6155C21.3069 27.6357 21.0705 27.9136 21.1526 28.211C21.686 30.143 23.2143 31.5381 25.0176 31.5381C26.4044 31.5381 27.6279 30.7126 28.362 29.4526C28.5233 29.1758 28.8893 29.0731 29.1489 29.261L30.5354 30.2644C30.7489 30.4189 30.8069 30.7134 30.6561 30.9296C29.4175 32.7055 27.4123 34.3584 25.1465 34.3584C21.58 34.3584 18.6547 31.6186 18.3581 28.1289C18.335 27.8564 18.1141 27.6357 17.8405 27.6357H15.3879C15.0258 27.6357 14.7837 27.2627 14.9314 26.9319L15.485 25.6917C15.5654 25.5115 15.7442 25.3955 15.9415 25.3955H17.5566C17.8328 25.3955 18.0566 25.1717 18.0566 24.8955V24.4131C18.0566 24.1369 17.8328 23.9131 17.5566 23.9131H15.3879C15.0258 23.9131 14.7837 23.54 14.9314 23.2093L15.485 21.969C15.5654 21.7889 15.7442 21.6729 15.9415 21.6729H17.8384C18.1128 21.6729 18.334 21.4509 18.3561 21.1774C18.6394 17.6744 21.5705 14.9199 25.1465 14.9199Z" fill="white"/>
</g>
<defs>
<clipPath id="clip0_1260_3578">
<rect width="48" height="48" fill="white" transform="translate(0.660156 0.638672)"/>
</clipPath>
</defs>
</svg>
