<svg width="48" height="49" viewBox="0 0 48 49" fill="none" xmlns="http://www.w3.org/2000/svg">
<g clip-path="url(#clip0_1260_3530)">
<path d="M23.8021 48.6387C36.9753 48.6387 47.6042 37.8966 47.6042 24.6669C47.6608 11.3807 36.9753 0.638672 23.8021 0.638672C10.6855 0.638672 0 11.3807 0 24.6104C0 37.8966 10.6855 48.6387 23.8021 48.6387Z" fill="#0071F3"/>
<path d="M27.5882 10.25H24.9875H19.2207C18.3161 10.25 17.4681 10.9284 17.355 11.8896L16.7896 15.7341V15.7906H13.9628C13.2278 15.7906 12.6059 16.4125 12.6059 17.1475C12.6059 17.939 13.2278 18.5044 13.9628 18.561H16.3373L15.9416 21.2182V21.4443H13.1147C12.3797 21.4443 11.7578 22.0663 11.7578 22.8012C11.7578 23.5362 12.3797 24.1581 13.1147 24.1581H15.4893L14.1889 32.4125L13.7931 35.1829L13.567 36.6528C13.3974 37.8401 14.2454 38.8578 15.4327 38.8578H17.2419H19.7295H21.7649C22.6695 38.8578 23.461 38.1793 23.6306 37.2182L24.8179 29.6422H25.4963H27.7578C33.0723 29.6422 37.4257 25.2323 37.3126 19.8613C37.256 14.3772 32.8462 10.25 27.5882 10.25ZM19.1076 18.4479L27.5882 18.5044C28.3232 18.5044 29.0016 19.1263 29.0016 19.9178C29.0016 20.7094 28.3797 21.3313 27.5882 21.3313H18.6553L19.1076 18.4479ZM27.6447 26.7023H26.2313H25.5529H24.1394C23.2348 26.7023 22.4433 27.3807 22.2737 28.3419L21.0864 35.9178H16.3939L18.203 24.0451H27.5882C29.8497 24.0451 31.7154 22.1793 31.7154 19.9178C31.7154 17.6564 29.8497 15.7906 27.5882 15.7906L19.5599 15.7341L19.9557 13.0203H27.7578C31.6023 13.0203 34.6553 16.1864 34.5988 20.0309C34.4857 23.7624 31.3762 26.7023 27.6447 26.7023Z" fill="white"/>
</g>
<defs>
<clipPath id="clip0_1260_3530">
<rect width="47.6608" height="48" fill="white" transform="translate(0 0.638672)"/>
</clipPath>
</defs>
</svg>
