<svg width="48" height="49" viewBox="0 0 48 49" fill="none" xmlns="http://www.w3.org/2000/svg">
<g clip-path="url(#clip0_1260_3551)">
<path d="M24 48.6387C37.3001 48.6387 48 37.9388 48 24.6387C48 11.3386 37.3001 0.638672 24 0.638672C10.6999 0.638672 0 11.3386 0 24.6387C0 37.9388 10.6999 48.6387 24 48.6387Z" fill="#2775CA"/>
<path d="M30.5991 28.4389C30.5991 24.9389 28.4991 23.7389 24.2991 23.239C21.2991 22.8389 20.6991 22.039 20.6991 20.6389C20.6991 19.2387 21.6992 18.3389 23.6991 18.3389C25.4991 18.3389 26.4992 18.9389 26.9991 20.4389C27.0992 20.7389 27.3992 20.9389 27.6992 20.9389H29.2991C29.6991 20.9389 29.9991 20.6389 29.9991 20.239V20.1389C29.5991 17.9389 27.7991 16.2389 25.4991 16.039V13.639C25.4991 13.2389 25.1991 12.9389 24.6992 12.8389H23.1992C22.7991 12.8389 22.4991 13.1389 22.3991 13.639V15.9389C19.3991 16.339 17.4992 18.3389 17.4992 20.839C17.4992 24.139 19.4991 25.4389 23.6991 25.939C26.4992 26.4389 27.3992 27.0389 27.3992 28.639C27.3992 30.2391 25.9991 31.339 24.0992 31.339C21.4991 31.339 20.5991 30.2389 20.2991 28.7389C20.1992 28.339 19.8992 28.1389 19.5992 28.1389H17.8991C17.4992 28.1389 17.1992 28.4389 17.1992 28.8389V28.939C17.5991 31.4389 19.1991 33.2389 22.4991 33.739V36.139C22.4991 36.5389 22.7991 36.8389 23.2991 36.9389H24.7991C25.1991 36.9389 25.4991 36.6389 25.5992 36.139V33.739C28.5992 33.2389 30.5991 31.1389 30.5991 28.4389Z" fill="white"/>
<path d="M18.9019 38.9385C11.1019 36.1387 7.10187 27.4387 10.002 19.7385C11.502 15.5385 14.802 12.3386 18.9019 10.8386C19.302 10.6387 19.5019 10.3387 19.5019 9.83851V8.43859C19.5019 8.03851 19.302 7.73851 18.9019 7.63867C18.8019 7.63867 18.602 7.63867 18.5019 7.73851C9.00195 10.7385 3.80187 20.8387 6.80187 30.3386C8.60187 35.9385 12.902 40.2386 18.5019 42.0386C18.902 42.2385 19.302 42.0386 19.4019 41.6385C19.502 41.5387 19.5019 41.4386 19.5019 41.2387V39.8385C19.5019 39.5385 19.2019 39.1387 18.9019 38.9385ZM29.502 7.73851C29.102 7.53859 28.7019 7.73851 28.602 8.13859C28.502 8.23867 28.5019 8.33851 28.5019 8.53867V9.93859C28.5019 10.3387 28.8019 10.7385 29.1019 10.9387C36.9019 13.7385 40.902 22.4385 38.0019 30.1387C36.5019 34.3387 33.2019 37.5386 29.1019 39.0386C28.7019 39.2385 28.5019 39.5385 28.5019 40.0387V41.4386C28.5019 41.8387 28.7019 42.1387 29.1019 42.2385C29.202 42.2385 29.402 42.2385 29.502 42.1387C39.002 39.1387 44.202 29.0385 41.202 19.5386C39.402 13.8386 35.0019 9.53851 29.502 7.73851Z" fill="white"/>
</g>
<defs>
<clipPath id="clip0_1260_3551">
<rect width="48" height="48" fill="white" transform="translate(0 0.638672)"/>
</clipPath>
</defs>
</svg>
