<svg width="48" height="49" viewBox="0 0 48 49" fill="none" xmlns="http://www.w3.org/2000/svg">
<g clip-path="url(#clip0_1260_3522)">
<circle cx="23.9863" cy="24.6211" r="23.5879" fill="black"/>
<path d="M24.0045 1.07422C10.9861 1.07422 0.433594 11.6267 0.433594 24.6451C0.433594 37.6635 10.9861 48.216 24.0045 48.216C37.0229 48.216 47.5754 37.6635 47.5754 24.6451C47.5754 11.6267 37.0229 1.07422 24.0045 1.07422Z" fill="url(#paint0_radial_1260_3522)" fill-opacity="0.7"/>
<path d="M47.1457 24.6451C47.1457 11.8652 36.7864 1.50595 24.0065 1.50595C11.2265 1.50595 0.867275 11.8652 0.867275 24.6451C0.867275 37.4251 11.2265 47.7844 24.0065 47.7844C36.7864 47.7844 47.1457 37.4251 47.1457 24.6451ZM48.009 24.6451C48.009 37.902 37.2633 48.6477 24.0065 48.6477C10.7497 48.6477 0.00390625 37.902 0.00390625 24.6451C0.00390625 11.3883 10.7497 0.642578 24.0065 0.642578C37.2633 0.642578 48.009 11.3883 48.009 24.6451Z" fill="url(#paint1_linear_1260_3522)"/>
<path fill-rule="evenodd" clip-rule="evenodd" d="M20.2338 5.24414C11.1318 6.99685 4.25391 15.0109 4.25391 24.6206C4.25391 34.2303 11.1318 42.2444 20.2338 43.9971V42.1477C12.135 40.4192 6.06705 33.227 6.06705 24.6206C6.06705 16.0142 12.135 8.82208 20.2338 7.09355V5.24414ZM27.7764 7.10564V5.25623C36.8663 7.02102 43.72 15.023 43.72 24.6206C43.72 34.2182 36.8663 42.2202 27.7764 43.985V42.1356C35.851 40.395 41.9069 33.2149 41.9069 24.6206C41.9069 16.0263 35.851 8.84626 27.7764 7.10564Z" fill="white"/>
<path d="M26.7994 23.9676C28.3104 24.2577 29.4708 24.8137 30.3048 25.6236C31.1389 26.4214 31.5498 27.4488 31.5498 28.6938V30.6641C31.5498 32.163 31.0059 33.3718 29.9301 34.2904C28.8543 35.197 27.428 35.6442 25.6753 35.6442H25.0709V38.7749H22.9918V35.6442H22.3512C21.1907 35.6442 20.1754 35.3904 19.2809 34.8706C18.3985 34.3388 17.6974 33.6014 17.2018 32.6586C16.7183 31.6916 16.4766 30.5916 16.4766 29.3345H18.5556C18.5556 30.6037 18.9062 31.6432 19.5952 32.441C20.3083 33.2146 21.2512 33.6135 22.3995 33.6135H25.6148C26.7511 33.6135 27.6697 33.3476 28.3708 32.8157C29.0598 32.2597 29.4103 31.5465 29.4103 30.6641V28.6938C29.4103 27.9928 29.1444 27.4005 28.6246 26.9049C28.117 26.4093 27.428 26.095 26.5456 25.9499L21.3358 25.0313C19.8732 24.7654 18.7249 24.2093 17.915 23.3753C17.1051 22.5292 16.6941 21.4775 16.6941 20.2083V18.5523C16.6941 17.0535 17.2139 15.8689 18.2534 14.9865C19.3172 14.0799 20.7193 13.6327 22.4479 13.6327H22.9676V10.502H25.0467V13.6327H25.7115C27.3554 13.6327 28.673 14.1645 29.6763 15.2282C30.6795 16.2678 31.1872 17.6578 31.1872 19.3743H29.1081C29.1081 18.2501 28.7939 17.3436 28.1774 16.6666C27.5609 15.9897 26.739 15.6513 25.7115 15.6513H22.4358C21.3358 15.6513 20.4534 15.9172 19.8007 16.4491C19.1479 16.9568 18.8216 17.6578 18.8216 18.5402V20.1962C18.8216 20.9094 19.0633 21.5138 19.5468 22.0094C20.0545 22.505 20.7314 22.8313 21.6017 22.9885L26.7994 23.9676Z" fill="white"/>
</g>
<defs>
<radialGradient id="paint0_radial_1260_3522" cx="0" cy="0" r="1" gradientUnits="userSpaceOnUse" gradientTransform="translate(24.0509 7.95257) rotate(90) scale(49.6984 34.9827)">
<stop offset="0.03125" stop-color="#3A3A3A"/>
<stop offset="1" stop-color="#1C1C1C"/>
</radialGradient>
<linearGradient id="paint1_linear_1260_3522" x1="24.0034" y1="0.639108" x2="24.0034" y2="48.645" gradientUnits="userSpaceOnUse">
<stop stop-color="white"/>
<stop offset="1" stop-color="#111111"/>
</linearGradient>
<clipPath id="clip0_1260_3522">
<rect width="48" height="48" fill="white" transform="translate(0 0.638672)"/>
</clipPath>
</defs>
</svg>
