<svg width="48" height="48" viewBox="0 0 48 48" fill="none" xmlns="http://www.w3.org/2000/svg">
<g clip-path="url(#clip0_1260_4222)">
<path d="M24 48C37.2548 48 48 37.2548 48 24C48 10.7452 37.2548 0 24 0C10.7452 0 0 10.7452 0 24C0 37.2548 10.7452 48 24 48Z" fill="url(#paint0_radial_1260_4222)"/>
<path d="M14.7826 30.2593H11.3672C11.6461 35.5915 16.1069 40.2266 24.0181 40.2266C31.8943 40.2266 36.9128 35.9051 36.9128 30.329C36.9128 26.3561 34.0202 21.9997 27.1197 19.6298C22.6241 18.0964 20.9163 16.1447 20.9163 14.1931C20.9163 12.3809 22.38 10.4641 25.3772 10.4641C28.7229 10.4641 32.4868 13.0779 32.7656 16.4235H36.1461C35.7976 11.0217 30.5351 7.25781 23.8438 7.25781C16.9085 7.25781 11.6809 11.3005 11.6809 17.016C11.6809 21.2329 14.4689 25.1363 21.1602 27.4712C25.7606 28.9699 27.6774 30.8517 27.6774 33.2216C27.6774 35.3127 26.1788 37.0552 22.9377 37.0552C18.895 37.0552 15.0265 34.2323 14.7826 30.2593ZM25.4469 22.5224C32.3823 24.8574 33.4975 28.3425 33.4975 30.5033C33.4975 33.1519 31.7549 35.4869 29.6638 36.0794C30.3957 35.3824 30.9533 33.849 30.9533 32.3852C30.9533 29.8759 29.2805 26.8439 23.0771 24.6832C15.9327 22.2436 15.0614 18.8979 15.0614 16.9115C15.0614 14.0885 16.8737 11.8233 19.139 11.1262C18.2677 12.1369 17.6404 13.6006 17.6404 14.9947C17.6404 17.5736 19.7662 20.6405 25.4469 22.5224Z" fill="white"/>
</g>
<defs>
<radialGradient id="paint0_radial_1260_4222" cx="0" cy="0" r="1" gradientUnits="userSpaceOnUse" gradientTransform="translate(24.04 55.6355) rotate(-90) scale(76.9283)">
<stop stop-color="#FFD232"/>
<stop offset="1" stop-color="#FF6D6D"/>
</radialGradient>
<clipPath id="clip0_1260_4222">
<rect width="48" height="48" fill="white"/>
</clipPath>
</defs>
</svg>
