<svg width="49" height="49" viewBox="0 0 49 49" fill="none" xmlns="http://www.w3.org/2000/svg">
<g clip-path="url(#clip0_1260_3550)">
<path fill-rule="evenodd" clip-rule="evenodd" d="M9.44822 3.96582L0.696138 22.3496C0.662834 22.418 0.65228 22.4952 0.66602 22.57C0.67976 22.6448 0.717072 22.7133 0.772501 22.7653L24.4098 45.4155C24.4769 45.4799 24.5663 45.5159 24.6594 45.5159C24.7524 45.5159 24.8418 45.4799 24.909 45.4155L48.5462 22.7667C48.6017 22.7147 48.639 22.6462 48.6527 22.5714C48.6665 22.4966 48.6559 22.4194 48.6226 22.351L39.8705 3.96723C39.8423 3.90549 39.7968 3.85319 39.7397 3.81658C39.6825 3.77997 39.616 3.76059 39.5481 3.76077H9.77347C9.70525 3.75992 9.63825 3.77883 9.58053 3.81521C9.52282 3.8516 9.47687 3.9039 9.44822 3.96582Z" fill="#50AF95"/>
<path fill-rule="evenodd" clip-rule="evenodd" d="M27.6974 24.2378C27.5277 24.2505 26.6509 24.3029 24.6952 24.3029C23.1396 24.3029 22.0352 24.2562 21.6477 24.2378C15.6362 23.9734 11.1492 22.9269 11.1492 21.674C11.1492 20.4211 15.6362 19.376 21.6477 19.1073V23.1956C22.0409 23.2239 23.1665 23.2903 24.7221 23.2903C26.5887 23.2903 27.5235 23.2126 27.6917 23.197V19.1102C33.6905 19.3774 38.1677 20.4239 38.1677 21.674C38.1677 22.9241 33.6919 23.9705 27.6917 24.2364L27.6974 24.2378ZM27.6974 18.6873V15.029H36.0691V9.4502H13.276V15.029H21.6463V18.6859C14.8429 18.9984 9.72656 20.3461 9.72656 21.9611C9.72656 23.576 14.8429 24.9223 21.6463 25.2362V36.9594H27.696V25.2319C34.4838 24.9194 39.5917 23.5732 39.5917 21.9596C39.5917 20.3461 34.4881 18.9999 27.696 18.6859L27.6974 18.6873Z" fill="white"/>
</g>
<defs>
<clipPath id="clip0_1260_3550">
<rect width="48" height="48" fill="white" transform="translate(0.660156 0.638672)"/>
</clipPath>
</defs>
</svg>
