<svg width="427" height="205" viewBox="0 0 427 205" fill="none" xmlns="http://www.w3.org/2000/svg">
<mask id="mask0_1460_7768" style="mask-type:alpha" maskUnits="userSpaceOnUse" x="-1" y="0" width="413" height="205">
<path d="M411.808 204.802H-0.0722656V0H411.808V204.802ZM198.7 137.678L158.652 112.073L198.701 170.8V170.799L238.753 112.073L198.7 137.678ZM158.652 103.8L198.701 129.406L238.753 103.8L198.701 34.002L158.652 103.8Z" fill="#D9D9D9"/>
</mask>
<g mask="url(#mask0_1460_7768)">
<path d="M384.193 9.10229L236.455 9.10229" stroke="white" stroke-opacity="0.5" stroke-width="2"/>
<path d="M332.803 13.6534L113.418 13.6534" stroke="white" stroke-opacity="0.2" stroke-width="2"/>
<path d="M404.397 18.2046L80.2615 18.2046" stroke="white" stroke-opacity="0.6" stroke-width="2"/>
<path d="M332.804 22.7558L60.5496 22.7558" stroke="white" stroke-opacity="0.5" stroke-width="2"/>
<path d="M352.076 27.3069L138.621 27.3069" stroke="white" stroke-opacity="0.8" stroke-width="2"/>
<path d="M344.43 31.8581L17.5002 31.8581" stroke="white" stroke-opacity="0.7" stroke-width="2"/>
<path d="M411.496 36.4092L147.148 36.4092" stroke="white" stroke-opacity="0.5" stroke-width="2"/>
<path d="M335.271 40.9604L155.416 40.9604" stroke="white" stroke-opacity="0.1" stroke-width="2"/>
<path d="M106.832 45.5116L0.239258 45.5116" stroke="white" stroke-opacity="0.9" stroke-width="2"/>
<path d="M335.766 50.0627L33.8655 50.0627" stroke="white" stroke-opacity="0.7" stroke-width="2"/>
<path d="M364.919 54.6139L121.817 54.6139" stroke="white" stroke-opacity="0.6" stroke-width="2"/>
<path d="M351.975 59.1651C228.286 59.1651 220.208 59.1651 96.52 59.1651" stroke="white" stroke-opacity="0.4" stroke-width="2"/>
<path d="M374.309 63.7162L7.18604 63.7162" stroke="white" stroke-opacity="0.1" stroke-width="2"/>
<path d="M356.024 68.2674L77.8408 68.2674" stroke="white" stroke-opacity="0.2" stroke-width="2"/>
<path d="M324.404 72.8185L40.7849 72.8185" stroke="white" stroke-opacity="0.5" stroke-width="2"/>
<path d="M346.144 77.3697L98.595 77.3697" stroke="white" stroke-opacity="0.2" stroke-width="2"/>
<path d="M312.053 81.9209L93.0625 81.9209" stroke="white" stroke-opacity="0.5" stroke-width="2"/>
<path d="M168.164 86.472H126.859" stroke="white" stroke-opacity="0.5" stroke-width="2"/>
<path d="M383.532 91.0232L284.501 91.0232" stroke="white" stroke-opacity="0.5" stroke-width="2"/>
<path d="M356.024 95.5743L92.563 95.5743" stroke="white" stroke-opacity="0.5" stroke-width="2"/>
<path d="M219.292 98.7602L354.142 98.7602" stroke="white" stroke-opacity="0.7" stroke-width="2"/>
<path d="M399.325 104.677L40.1072 104.677" stroke="white" stroke-opacity="0.5" stroke-width="2"/>
<path d="M329.921 109.228L210.429 109.228" stroke="white" stroke-opacity="0.5" stroke-width="2"/>
<path d="M360.473 113.779L55.1138 113.779" stroke="white" stroke-opacity="0.5" stroke-width="2"/>
<path d="M336.261 118.33L44.2422 118.33" stroke="white" stroke-opacity="0.3" stroke-width="2"/>
<path d="M366.405 122.881L123.798 122.881" stroke="white" stroke-opacity="0.9" stroke-width="2"/>
<path d="M338.238 127.432L55.1138 127.432" stroke="white" stroke-opacity="0.4" stroke-width="2"/>
<path d="M367.885 131.984L38.3142 131.984" stroke="white" stroke-opacity="0.5" stroke-width="2"/>
<path d="M332.311 136.535L94.1506 136.535" stroke="white" stroke-opacity="0.5" stroke-width="2"/>
<path d="M365.91 141.086L22.5042 141.086" stroke="white" stroke-opacity="0.1" stroke-width="2"/>
<path d="M297.227 145.637L69.4426 145.637" stroke="white" stroke-opacity="0.5" stroke-width="2"/>
<path d="M389.132 150.188L145.536 150.188" stroke="white" stroke-opacity="0.3" stroke-width="2"/>
<path d="M329.839 154.739L28.9265 154.739" stroke="white" stroke-opacity="0.7" stroke-width="2"/>
<path d="M288.333 159.291L98.595 159.291" stroke="white" stroke-opacity="0.2" stroke-width="2"/>
<path d="M362.941 163.842L164.803 163.842" stroke="white" stroke-opacity="0.5" stroke-width="2"/>
<path d="M325.886 168.393L126.266 168.393" stroke="white" stroke-opacity="0.9" stroke-width="2"/>
<path d="M353.557 172.944L95.6318 172.944" stroke="white" stroke-opacity="0.9" stroke-width="2"/>
<path d="M379.251 177.495L46.7151 177.495" stroke="white" stroke-opacity="0.3" stroke-width="2"/>
<path d="M270.051 182.046L133.183 182.046" stroke="white" stroke-opacity="0.1" stroke-width="2"/>
<path d="M256.302 186.598C77.8129 186.598 192.024 186.598 13.5344 186.598" stroke="white" stroke-opacity="0.4" stroke-width="2"/>
<path d="M108.5 191.149L307.926 191.149" stroke="white" stroke-opacity="0.6" stroke-width="2"/>
<path d="M393.086 195.7L222.618 195.7" stroke="white" stroke-opacity="0.8" stroke-width="2"/>
<path d="M384.193 8.19214L236.455 8.19214" stroke="black" stroke-opacity="0.5" stroke-width="2"/>
<path d="M332.803 12.7433L113.418 12.7433" stroke="black" stroke-opacity="0.2" stroke-width="2"/>
<path d="M404.397 17.2944L80.2615 17.2944" stroke="black" stroke-opacity="0.6" stroke-width="2"/>
<path d="M332.804 21.8456L60.5496 21.8456" stroke="black" stroke-opacity="0.5" stroke-width="2"/>
<path d="M352.076 26.3968L138.621 26.3968" stroke="black" stroke-opacity="0.8" stroke-width="2"/>
<path d="M344.43 30.9479L17.5002 30.9479" stroke="black" stroke-opacity="0.7" stroke-width="2"/>
<path d="M411.496 35.4991L147.148 35.4991" stroke="black" stroke-opacity="0.5" stroke-width="2"/>
<path d="M335.271 40.0502L155.416 40.0502" stroke="black" stroke-opacity="0.1" stroke-width="2"/>
<path d="M106.832 44.6014L0.239258 44.6014" stroke="black" stroke-opacity="0.9" stroke-width="2"/>
<path d="M335.766 49.1526L33.8655 49.1526" stroke="black" stroke-opacity="0.7" stroke-width="2"/>
<path d="M364.919 53.7037L121.817 53.7037" stroke="black" stroke-opacity="0.6" stroke-width="2"/>
<path d="M351.975 58.2549C228.286 58.2549 220.208 58.2549 96.52 58.2549" stroke="black" stroke-opacity="0.4" stroke-width="2"/>
<path d="M374.309 62.806L7.18604 62.806" stroke="black" stroke-opacity="0.1" stroke-width="2"/>
<path d="M356.024 67.3572L77.8408 67.3572" stroke="black" stroke-opacity="0.2" stroke-width="2"/>
<path d="M324.404 71.9084L40.7849 71.9084" stroke="black" stroke-opacity="0.5" stroke-width="2"/>
<path d="M346.144 76.4595L98.595 76.4595" stroke="black" stroke-opacity="0.2" stroke-width="2"/>
<path d="M312.053 81.0107L93.0625 81.0107" stroke="black" stroke-opacity="0.5" stroke-width="2"/>
<path d="M168.164 85.5619H126.859" stroke="black" stroke-opacity="0.5" stroke-width="2"/>
<path d="M383.532 90.113L284.501 90.113" stroke="black" stroke-opacity="0.5" stroke-width="2"/>
<path d="M356.024 94.6642L92.563 94.6642" stroke="black" stroke-opacity="0.5" stroke-width="2"/>
<path d="M219.292 97.85L354.142 97.85" stroke="black" stroke-opacity="0.7" stroke-width="2"/>
<path d="M399.325 103.766L40.1072 103.766" stroke="black" stroke-opacity="0.5" stroke-width="2"/>
<path d="M329.921 108.318L210.429 108.318" stroke="black" stroke-opacity="0.5" stroke-width="2"/>
<path d="M360.473 112.869L55.1138 112.869" stroke="black" stroke-opacity="0.5" stroke-width="2"/>
<path d="M336.261 117.42L44.2422 117.42" stroke="black" stroke-opacity="0.3" stroke-width="2"/>
<path d="M366.405 121.971L123.798 121.971" stroke="black" stroke-opacity="0.9" stroke-width="2"/>
<path d="M338.238 126.522L55.1138 126.522" stroke="black" stroke-opacity="0.4" stroke-width="2"/>
<path d="M367.885 131.073L38.3142 131.073" stroke="black" stroke-opacity="0.5" stroke-width="2"/>
<path d="M332.311 135.625L94.1506 135.625" stroke="black" stroke-opacity="0.5" stroke-width="2"/>
<path d="M365.91 140.176L22.5042 140.176" stroke="black" stroke-opacity="0.1" stroke-width="2"/>
<path d="M297.227 144.727L69.4426 144.727" stroke="black" stroke-opacity="0.5" stroke-width="2"/>
<path d="M389.132 149.278L145.536 149.278" stroke="black" stroke-opacity="0.3" stroke-width="2"/>
<path d="M329.839 153.829L28.9265 153.829" stroke="black" stroke-opacity="0.7" stroke-width="2"/>
<path d="M288.333 158.38L98.595 158.38" stroke="black" stroke-opacity="0.2" stroke-width="2"/>
<path d="M362.941 162.932L164.803 162.932" stroke="black" stroke-opacity="0.5" stroke-width="2"/>
<path d="M325.886 167.483L126.266 167.483" stroke="black" stroke-opacity="0.9" stroke-width="2"/>
<path d="M353.557 172.034L95.6318 172.034" stroke="black" stroke-opacity="0.9" stroke-width="2"/>
<path d="M379.251 176.585L46.7151 176.585" stroke="black" stroke-opacity="0.3" stroke-width="2"/>
<path d="M270.051 181.136L133.183 181.136" stroke="black" stroke-opacity="0.1" stroke-width="2"/>
<path d="M256.302 185.687C77.8129 185.687 192.024 185.687 13.5344 185.687" stroke="black" stroke-opacity="0.4" stroke-width="2"/>
<path d="M108.5 190.239L307.926 190.239" stroke="black" stroke-opacity="0.6" stroke-width="2"/>
<path d="M393.086 194.79L222.618 194.79" stroke="black" stroke-opacity="0.8" stroke-width="2"/>
</g>
</svg>
