<svg width="180" height="34" viewBox="0 0 180 34" fill="none" xmlns="http://www.w3.org/2000/svg">
<path d="M9.68457 33.0771L0 18.8779L9.68359 25.0684L19.3682 18.8779L9.68457 33.0771Z" fill="white"/>
<path d="M9.68359 0L19.3682 16.8779L9.68359 23.0684L0 16.8779L9.68359 0Z" fill="white"/>
<path d="M29.1953 8.62068C29.1953 7.98227 29.3261 7.41693 29.5876 6.92466C29.8491 6.43239 30.2145 6.05165 30.6837 5.78244C31.1528 5.51323 31.6951 5.37863 32.3104 5.37863C32.9027 5.37863 33.4296 5.51708 33.8911 5.79398C34.3603 6.07088 34.7256 6.45931 34.9872 6.95927C35.2487 7.45923 35.3794 8.02842 35.3794 8.66683V9.1514H30.8452C30.8683 9.53599 31.0144 9.8475 31.2836 10.0859C31.5528 10.3244 31.9066 10.4436 32.3451 10.4436C32.6527 10.4436 32.9373 10.3782 33.1988 10.2475C33.4604 10.109 33.7449 9.87442 34.0526 9.54368L35.0795 10.5936C34.7256 10.9859 34.318 11.2935 33.8565 11.5166C33.395 11.732 32.8912 11.8397 32.3451 11.8397C31.722 11.8397 31.1721 11.705 30.6952 11.4358C30.2183 11.1666 29.8491 10.7897 29.5876 10.3052C29.3261 9.81289 29.1953 9.2514 29.1953 8.62068ZM33.718 7.9515C33.6873 7.61307 33.5373 7.33232 33.2681 7.10926C33.0065 6.8862 32.6873 6.77467 32.3104 6.77467C31.9182 6.77467 31.5951 6.88236 31.3413 7.09772C31.0875 7.31309 30.9298 7.59768 30.8683 7.9515H33.718Z" fill="white"/>
<path d="M40.7162 7.02851V9.486C40.7162 9.69368 40.7623 9.84367 40.8546 9.93597C40.9546 10.0283 41.1161 10.0744 41.3392 10.0744H42.7352V11.6666H41.1892C40.5124 11.6666 39.9893 11.5089 39.6201 11.1935C39.2509 10.8705 39.0663 10.4128 39.0663 9.82059V7.02851H37.5664V5.5517H39.0663V3.99414H40.7162V5.5517H43.116V7.02851H40.7162Z" fill="white"/>
<path d="M45.5312 3.2442H47.1811V6.11704H47.2043C47.635 5.62477 48.2234 5.37864 48.9695 5.37864C49.4156 5.37864 49.8118 5.48632 50.1579 5.70169C50.504 5.91706 50.7732 6.22088 50.9655 6.61316C51.1578 7.00543 51.254 7.45924 51.254 7.97459V11.6666H49.604V8.1938C49.604 7.78614 49.5001 7.46693 49.2925 7.23618C49.0848 7.00543 48.8003 6.89006 48.4388 6.89006C48.0465 6.89006 47.7389 7.00543 47.5158 7.23618C47.2927 7.45924 47.1811 7.77076 47.1811 8.17072V11.6666H45.5312V3.2442Z" fill="white"/>
<path d="M53.2656 8.62068C53.2656 7.98227 53.3964 7.41693 53.6579 6.92466C53.9194 6.43239 54.2847 6.05165 54.7539 5.78244C55.2231 5.51323 55.7654 5.37863 56.3807 5.37863C56.973 5.37863 57.4999 5.51708 57.9614 5.79398C58.4306 6.07088 58.7959 6.45931 59.0574 6.95927C59.319 7.45923 59.4497 8.02842 59.4497 8.66683V9.1514H54.9155C54.9385 9.53599 55.0847 9.8475 55.3539 10.0859C55.6231 10.3244 55.9769 10.4436 56.4153 10.4436C56.723 10.4436 57.0076 10.3782 57.2691 10.2475C57.5306 10.109 57.8152 9.87442 58.1229 9.54368L59.1497 10.5936C58.7959 10.9859 58.3883 11.2935 57.9268 11.5166C57.4653 11.732 56.9615 11.8397 56.4153 11.8397C55.7923 11.8397 55.2424 11.705 54.7655 11.4358C54.2886 11.1666 53.9194 10.7897 53.6579 10.3052C53.3964 9.81289 53.2656 9.2514 53.2656 8.62068ZM57.7883 7.9515C57.7575 7.61307 57.6076 7.33232 57.3383 7.10926C57.0768 6.8862 56.7576 6.77467 56.3807 6.77467C55.9884 6.77467 55.6654 6.88236 55.4116 7.09772C55.1577 7.31309 55.0001 7.59768 54.9385 7.9515H57.7883Z" fill="white"/>
<path d="M62.0273 5.55169H63.6079V6.11703H63.631C63.8925 5.85551 64.1617 5.66707 64.4386 5.55169C64.7232 5.43632 65.0463 5.37863 65.4078 5.37863C65.9385 5.37863 66.3962 5.53631 66.7808 5.85167C67.1653 6.15934 67.4345 6.58238 67.5884 7.1208L66.0424 7.62845C65.8654 7.12849 65.5001 6.87851 64.9463 6.87851C64.5309 6.87851 64.2156 7.00158 64.0002 7.24771C63.7848 7.48615 63.6772 7.8169 63.6772 8.23994V11.6666H62.0273V5.55169Z" fill="white"/>
<path d="M69.3125 8.62068C69.3125 7.98227 69.4432 7.41693 69.7048 6.92466C69.9663 6.43239 70.3316 6.05165 70.8008 5.78244C71.27 5.51323 71.8123 5.37863 72.4276 5.37863C73.0199 5.37863 73.5468 5.51708 74.0083 5.79398C74.4774 6.07088 74.8428 6.45931 75.1043 6.95927C75.3658 7.45923 75.4966 8.02842 75.4966 8.66683V9.1514H70.9624C70.9854 9.53599 71.1316 9.8475 71.4008 10.0859C71.67 10.3244 72.0238 10.4436 72.4622 10.4436C72.7699 10.4436 73.0545 10.3782 73.316 10.2475C73.5775 10.109 73.8621 9.87442 74.1698 9.54368L75.1966 10.5936C74.8428 10.9859 74.4351 11.2935 73.9736 11.5166C73.5121 11.732 73.0083 11.8397 72.4622 11.8397C71.8392 11.8397 71.2892 11.705 70.8124 11.4358C70.3355 11.1666 69.9663 10.7897 69.7048 10.3052C69.4432 9.81289 69.3125 9.2514 69.3125 8.62068ZM73.8352 7.9515C73.8044 7.61307 73.6544 7.33232 73.3852 7.10926C73.1237 6.8862 72.8045 6.77467 72.4276 6.77467C72.0353 6.77467 71.7123 6.88236 71.4585 7.09772C71.2046 7.31309 71.047 7.59768 70.9854 7.9515H73.8352Z" fill="white"/>
<path d="M77.6797 9.58984V5.5517H79.3296V9.2091C79.3296 9.9552 79.6988 10.3282 80.4372 10.3282C80.7679 10.3282 81.0294 10.2282 81.2217 10.0283C81.4217 9.82059 81.5217 9.54754 81.5217 9.2091V5.5517H83.1716V11.6666H81.5909V11.1243H81.5678C81.3986 11.3397 81.164 11.5128 80.8641 11.6435C80.5718 11.7743 80.2641 11.8397 79.9411 11.8397C79.218 11.8397 78.6604 11.6435 78.2681 11.2512C77.8758 10.8513 77.6797 10.2975 77.6797 9.58984Z" fill="white"/>
<path d="M85.1836 5.55168H86.6373V6.08241H86.6604C86.7912 5.87473 86.9565 5.71705 87.1565 5.60937C87.3642 5.494 87.5911 5.43631 87.8372 5.43631C88.3218 5.43631 88.7102 5.66321 89.0025 6.11702H89.0256C89.3333 5.66321 89.7563 5.43631 90.2947 5.43631C90.7408 5.43631 91.1024 5.59399 91.3793 5.90935C91.6562 6.22471 91.7946 6.63621 91.7946 7.14386V11.6666H90.2717V7.4323C90.2717 7.25539 90.2255 7.12079 90.1332 7.02849C90.0409 6.93619 89.9101 6.89004 89.7409 6.89004C89.5794 6.89004 89.4486 6.94388 89.3487 7.05156C89.2564 7.15156 89.2102 7.29001 89.2102 7.46691V11.6666H87.768V7.4323C87.768 7.26308 87.7219 7.13233 87.6296 7.04003C87.545 6.94003 87.4219 6.89004 87.2604 6.89004C87.0911 6.89004 86.9565 6.94388 86.8565 7.05156C86.7566 7.15156 86.7066 7.29001 86.7066 7.46691V11.6666H85.1836V5.55168Z" fill="white"/>
<path d="M103.248 7.7092H101.633V6.2324H103.248V5.33247C103.248 4.79405 103.425 4.37101 103.779 4.06334C104.14 3.74798 104.637 3.5903 105.267 3.5903H107.044V5.05557H105.463C105.302 5.05557 105.179 5.09787 105.094 5.18248C105.01 5.26709 104.967 5.38631 104.967 5.54015V6.2324H107.413V7.7092H104.967V11.6666H103.248V7.7092Z" fill="white"/>
<path d="M109.426 8.60914C109.426 7.97842 109.557 7.42077 109.819 6.9362C110.08 6.44393 110.445 6.06319 110.915 5.79398C111.391 5.51708 111.934 5.37863 112.541 5.37863C113.157 5.37863 113.699 5.51708 114.168 5.79398C114.645 6.06319 115.014 6.44393 115.276 6.9362C115.537 7.42077 115.668 7.97842 115.668 8.60914C115.668 9.23986 115.537 9.80135 115.276 10.2936C115.014 10.7782 114.645 11.1589 114.168 11.4358C113.699 11.705 113.157 11.8397 112.541 11.8397C111.934 11.8397 111.391 11.705 110.915 11.4358C110.445 11.1589 110.08 10.7782 109.819 10.2936C109.557 9.80135 109.426 9.23986 109.426 8.60914ZM114.018 8.60914C114.018 8.07072 113.887 7.65152 113.626 7.35155C113.372 7.04388 113.011 6.89005 112.541 6.89005C112.08 6.89005 111.718 7.04388 111.457 7.35155C111.203 7.65152 111.076 8.07072 111.076 8.60914C111.076 9.14756 111.203 9.5706 111.457 9.87827C111.718 10.1782 112.08 10.3282 112.541 10.3282C113.003 10.3282 113.364 10.1744 113.626 9.86673C113.887 9.55906 114.018 9.13987 114.018 8.60914Z" fill="white"/>
<path d="M117.797 9.58984V5.5517H119.447V9.2091C119.447 9.9552 119.817 10.3282 120.555 10.3282C120.886 10.3282 121.147 10.2282 121.339 10.0283C121.539 9.82059 121.639 9.54754 121.639 9.2091V5.5517H123.289V11.6666H121.709V11.1243H121.686C121.516 11.3397 121.282 11.5128 120.982 11.6435C120.69 11.7743 120.382 11.8397 120.059 11.8397C119.336 11.8397 118.778 11.6435 118.386 11.2512C117.994 10.8513 117.797 10.2975 117.797 9.58984Z" fill="white"/>
<path d="M125.762 5.55169H127.412V6.12857H127.435C127.681 5.88244 127.946 5.69784 128.231 5.57477C128.515 5.44401 128.839 5.37863 129.2 5.37863C129.6 5.37863 129.973 5.47478 130.319 5.66707C130.665 5.85167 130.946 6.14011 131.161 6.53238C131.377 6.91697 131.484 7.3977 131.484 7.97458V11.6666H129.835V8.19379C129.835 7.80151 129.735 7.48615 129.535 7.24771C129.335 7.00927 129.046 6.89005 128.669 6.89005C128.277 6.89005 127.969 7.00542 127.746 7.23617C127.523 7.45923 127.412 7.77075 127.412 8.17071V11.6666H125.762V5.55169Z" fill="white"/>
<path d="M133.367 8.60915C133.367 7.99381 133.486 7.44001 133.724 6.94774C133.963 6.45548 134.297 6.07089 134.728 5.79399C135.159 5.51709 135.647 5.37864 136.193 5.37864C136.886 5.37864 137.428 5.56324 137.82 5.93244H137.843V3.2442H139.493V11.6666H137.97V11.1359H137.947C137.493 11.6051 136.901 11.8397 136.17 11.8397C135.632 11.8397 135.147 11.705 134.717 11.4358C134.293 11.1666 133.963 10.7897 133.724 10.3052C133.486 9.8129 133.367 9.24756 133.367 8.60915ZM137.843 9.00143V8.20534C137.843 7.97459 137.782 7.75922 137.659 7.55923C137.536 7.35925 137.362 7.19772 137.139 7.07466C136.924 6.95159 136.682 6.89006 136.413 6.89006C135.982 6.89006 135.64 7.04774 135.386 7.3631C135.14 7.67076 135.016 8.08612 135.016 8.60915C135.016 9.12449 135.143 9.53984 135.397 9.8552C135.651 10.1706 135.986 10.3282 136.401 10.3282C136.816 10.3282 137.159 10.2013 137.428 9.9475C137.705 9.68599 137.843 9.37063 137.843 9.00143Z" fill="white"/>
<path d="M141.898 10.0283C141.898 9.45907 142.091 9.0168 142.475 8.70144C142.868 8.38608 143.517 8.15533 144.425 8.00919C144.902 7.93227 145.225 7.84766 145.394 7.75536C145.571 7.65537 145.66 7.52461 145.66 7.36309C145.66 7.17849 145.575 7.03234 145.406 6.92466C145.237 6.81698 145.006 6.76313 144.714 6.76313C144.383 6.76313 144.094 6.86313 143.848 7.06311C143.61 7.26309 143.456 7.52846 143.387 7.8592L141.852 7.51307C141.929 7.09772 142.102 6.72852 142.371 6.40547C142.641 6.08242 142.979 5.83244 143.387 5.65553C143.794 5.47093 144.237 5.37863 144.714 5.37863C145.498 5.37863 146.125 5.59784 146.594 6.03627C147.063 6.4747 147.298 7.05926 147.298 7.78997V11.6666H145.821V10.9859H145.798C145.621 11.2551 145.371 11.4666 145.048 11.6204C144.733 11.7666 144.375 11.8397 143.975 11.8397C143.575 11.8397 143.217 11.7627 142.902 11.6089C142.587 11.4551 142.341 11.2397 142.164 10.9628C141.987 10.6859 141.898 10.3744 141.898 10.0283ZM145.729 9.39369V8.70144H145.706C145.637 8.81682 145.521 8.90912 145.36 8.97834C145.198 9.04757 144.944 9.11679 144.598 9.18602C144.167 9.27832 143.871 9.37831 143.71 9.48599C143.548 9.58598 143.467 9.72828 143.467 9.91288C143.467 10.0898 143.537 10.2244 143.675 10.3167C143.821 10.409 144.029 10.4551 144.298 10.4551C144.544 10.4551 144.779 10.409 145.002 10.3167C145.225 10.2167 145.402 10.0859 145.533 9.92442C145.663 9.7552 145.729 9.57829 145.729 9.39369Z" fill="white"/>
<path d="M153.037 7.02851V9.486C153.037 9.69368 153.083 9.84367 153.175 9.93597C153.275 10.0283 153.437 10.0744 153.66 10.0744H155.056V11.6666H153.51C152.833 11.6666 152.31 11.5089 151.941 11.1935C151.571 10.8705 151.387 10.4128 151.387 9.82059V7.02851H149.887V5.5517H151.387V3.99414H153.037V5.5517H155.436V7.02851H153.037Z" fill="white"/>
<path d="M163.691 10.1552V11.6666H157.68V10.1552H159.861V7.06311H157.796V5.55169H161.511V10.1552H163.691ZM159.826 2.96729H161.522V4.59408H159.826V2.96729Z" fill="white"/>
<path d="M165.59 8.60914C165.59 7.97842 165.721 7.42077 165.982 6.9362C166.244 6.44393 166.609 6.06319 167.078 5.79398C167.555 5.51708 168.097 5.37863 168.705 5.37863C169.32 5.37863 169.863 5.51708 170.332 5.79398C170.809 6.06319 171.178 6.44393 171.439 6.9362C171.701 7.42077 171.832 7.97842 171.832 8.60914C171.832 9.23986 171.701 9.80135 171.439 10.2936C171.178 10.7782 170.809 11.1589 170.332 11.4358C169.863 11.705 169.32 11.8397 168.705 11.8397C168.097 11.8397 167.555 11.705 167.078 11.4358C166.609 11.1589 166.244 10.7782 165.982 10.2936C165.721 9.80135 165.59 9.23986 165.59 8.60914ZM170.182 8.60914C170.182 8.07072 170.051 7.65152 169.79 7.35155C169.536 7.04388 169.174 6.89005 168.705 6.89005C168.244 6.89005 167.882 7.04388 167.62 7.35155C167.367 7.65152 167.24 8.07072 167.24 8.60914C167.24 9.14756 167.367 9.5706 167.62 9.87827C167.882 10.1782 168.244 10.3282 168.705 10.3282C169.167 10.3282 169.528 10.1744 169.79 9.86673C170.051 9.55906 170.182 9.13987 170.182 8.60914Z" fill="white"/>
<path d="M173.898 5.55169H175.548V6.12857H175.571C175.818 5.88244 176.083 5.69784 176.367 5.57477C176.652 5.44401 176.975 5.37863 177.337 5.37863C177.737 5.37863 178.11 5.47478 178.456 5.66707C178.802 5.85167 179.083 6.14011 179.298 6.53238C179.513 6.91697 179.621 7.3977 179.621 7.97458V11.6666H177.971V8.19379C177.971 7.80151 177.871 7.48615 177.671 7.24771C177.471 7.00927 177.183 6.89005 176.806 6.89005C176.414 6.89005 176.106 7.00542 175.883 7.23617C175.66 7.45923 175.548 7.77075 175.548 8.17071V11.6666H173.898V5.55169Z" fill="white"/>
<path d="M29.4062 23.712C29.4062 22.8606 29.5806 22.1067 29.9294 21.4503C30.2781 20.7938 30.7654 20.2861 31.3911 19.9271C32.0168 19.5681 32.7398 19.3886 33.5604 19.3886C34.3501 19.3886 35.0529 19.5732 35.6683 19.9425C36.294 20.3118 36.7811 20.8297 37.1298 21.4964C37.4785 22.1632 37.653 22.9222 37.653 23.7735V24.4197H31.6064C31.6372 24.9326 31.8321 25.348 32.1911 25.6659C32.5501 25.9839 33.0219 26.1429 33.6065 26.1429C34.0168 26.1429 34.3963 26.0557 34.745 25.8813C35.0938 25.6967 35.4733 25.3839 35.8836 24.9428L37.2529 26.3429C36.7811 26.866 36.2375 27.2763 35.6221 27.5737C35.0067 27.8609 34.3348 28.0045 33.6065 28.0045C32.7757 28.0045 32.0424 27.825 31.4065 27.466C30.7705 27.107 30.2781 26.6045 29.9294 25.9583C29.5806 25.3018 29.4062 24.553 29.4062 23.712ZM35.4375 22.8196C35.3965 22.3683 35.1964 21.9939 34.8374 21.6965C34.4886 21.399 34.063 21.2503 33.5604 21.2503C33.0372 21.2503 32.6065 21.3939 32.2681 21.6811C31.9296 21.9683 31.7192 22.3478 31.6372 22.8196H35.4375Z" fill="white"/>
<path d="M40.4883 19.6194H42.6884V20.3887H42.7192C43.0474 20.0605 43.4013 19.8143 43.7808 19.6502C44.1603 19.4758 44.5911 19.3886 45.0732 19.3886C45.6065 19.3886 46.104 19.5168 46.5656 19.7733C47.0271 20.0194 47.4015 20.4041 47.6887 20.9272C47.9759 21.44 48.1195 22.0811 48.1195 22.8504V27.7738H45.9194V23.1427C45.9194 22.6196 45.786 22.1991 45.5194 21.8811C45.2527 21.5631 44.868 21.4041 44.3654 21.4041C43.8423 21.4041 43.432 21.558 43.1346 21.8657C42.8371 22.1632 42.6884 22.5786 42.6884 23.1119V27.7738H40.4883V19.6194Z" fill="white"/>
<path d="M55.4658 21.5888V24.8659C55.4658 25.1428 55.5274 25.3428 55.6505 25.4659C55.7838 25.589 55.9992 25.6505 56.2967 25.6505H58.1583V27.7738H56.0967C55.194 27.7738 54.4966 27.5635 54.0042 27.1429C53.5119 26.7122 53.2657 26.1019 53.2657 25.3121V21.5888H51.2656V19.6194H53.2657V17.5424H55.4658V19.6194H58.6661V21.5888H55.4658Z" fill="white"/>
<path d="M61.5039 23.712C61.5039 22.8606 61.6783 22.1067 62.027 21.4503C62.3758 20.7938 62.863 20.2861 63.4886 19.9271C64.1143 19.5681 64.8374 19.3886 65.658 19.3886C66.4478 19.3886 67.1504 19.5732 67.7658 19.9425C68.3915 20.3118 68.8787 20.8297 69.2275 21.4964C69.5762 22.1632 69.7506 22.9222 69.7506 23.7735V24.4197H63.704C63.7348 24.9326 63.9297 25.348 64.2887 25.6659C64.6477 25.9839 65.1195 26.1429 65.7042 26.1429C66.1144 26.1429 66.494 26.0557 66.8427 25.8813C67.1914 25.6967 67.5709 25.3839 67.9812 24.9428L69.3505 26.3429C68.8787 26.866 68.3351 27.2763 67.7197 27.5737C67.1042 27.8609 66.4324 28.0045 65.7042 28.0045C64.8733 28.0045 64.14 27.825 63.504 27.466C62.8681 27.107 62.3758 26.6045 62.027 25.9583C61.6783 25.3018 61.5039 24.553 61.5039 23.712ZM67.535 22.8196C67.494 22.3683 67.294 21.9939 66.935 21.6965C66.5863 21.399 66.1606 21.2503 65.658 21.2503C65.1349 21.2503 64.7041 21.3939 64.3656 21.6811C64.0271 21.9683 63.8169 22.3478 63.7348 22.8196H67.535Z" fill="white"/>
<path d="M73.1875 19.6194H75.2953V20.3733H75.3261C75.6748 20.0246 76.0338 19.7733 76.4031 19.6194C76.7826 19.4655 77.2134 19.3886 77.6954 19.3886C78.4032 19.3886 79.0135 19.5989 79.5263 20.0194C80.0392 20.4297 80.3982 20.9938 80.6033 21.7118L78.5416 22.3888C78.3057 21.7221 77.8185 21.3887 77.08 21.3887C76.5261 21.3887 76.1056 21.5529 75.8184 21.8811C75.5312 22.1991 75.3876 22.6401 75.3876 23.2042V27.7738H73.1875V19.6194Z" fill="white"/>
<path d="M83.207 19.6194H85.3148V20.3271H85.3456C85.9507 19.7015 86.7149 19.3886 87.638 19.3886C88.356 19.3886 88.9971 19.5681 89.5612 19.9271C90.1356 20.2861 90.5818 20.7938 90.8998 21.4503C91.2177 22.0965 91.3767 22.8452 91.3767 23.6966C91.3767 24.5171 91.2177 25.2557 90.8998 25.9121C90.5818 26.5686 90.1356 27.0814 89.5612 27.4507C88.9868 27.8199 88.3355 28.0045 87.6073 28.0045C87.1457 28.0045 86.7303 27.9327 86.361 27.7891C85.9918 27.6455 85.6841 27.4507 85.4379 27.2045H85.4071V31.2355H83.207V19.6194ZM89.1766 23.6966C89.1766 22.9991 89.0022 22.4452 88.6535 22.0349C88.3047 21.6144 87.8227 21.4041 87.2072 21.4041C86.7149 21.4041 86.2892 21.5785 85.9302 21.9272C85.5815 22.2657 85.4071 22.6811 85.4071 23.1735V24.2351C85.4071 24.5428 85.4892 24.83 85.6533 25.0967C85.8174 25.3634 86.0431 25.5787 86.3303 25.7429C86.6277 25.907 86.9559 25.989 87.3149 25.989C87.8893 25.989 88.3406 25.7839 88.6689 25.3736C89.0073 24.9531 89.1766 24.3941 89.1766 23.6966Z" fill="white"/>
<path d="M94.5859 19.6194H96.6938V20.3733H96.7245C97.0733 20.0246 97.4323 19.7733 97.8015 19.6194C98.181 19.4655 98.6118 19.3886 99.0939 19.3886C99.8016 19.3886 100.412 19.5989 100.925 20.0194C101.438 20.4297 101.797 20.9938 102.002 21.7118L99.9401 22.3888C99.7042 21.7221 99.217 21.3887 98.4785 21.3887C97.9246 21.3887 97.5041 21.5529 97.2169 21.8811C96.9297 22.1991 96.7861 22.6401 96.7861 23.2042V27.7738H94.5859V19.6194Z" fill="white"/>
<path d="M112.469 25.7582V27.7738H104.453V25.7582H107.361V21.6349H104.607V19.6194H109.561V25.7582H112.469ZM107.315 16.173H109.576V18.3424H107.315V16.173Z" fill="white"/>
<path d="M115.215 25.0813L117.215 24.6197C117.358 25.1326 117.615 25.5275 117.984 25.8044C118.363 26.0711 118.84 26.2044 119.415 26.2044C119.928 26.2044 120.317 26.1429 120.584 26.0198C120.861 25.8967 120.999 25.7223 120.999 25.4967C120.999 25.2403 120.861 25.0454 120.584 24.912C120.307 24.7684 119.799 24.6248 119.061 24.4812C117.851 24.2556 116.984 23.9427 116.461 23.5427C115.948 23.1427 115.691 22.5939 115.691 21.8965C115.691 21.4041 115.835 20.9682 116.122 20.5887C116.409 20.2092 116.81 19.9169 117.322 19.7117C117.845 19.4963 118.44 19.3886 119.107 19.3886C120.02 19.3886 120.83 19.6143 121.538 20.0656C122.246 20.5169 122.723 21.1169 122.969 21.8657L121.076 22.4811C120.923 22.0708 120.671 21.7529 120.323 21.5272C119.984 21.3016 119.574 21.1887 119.092 21.1887C118.692 21.1887 118.374 21.2554 118.138 21.3887C117.902 21.5118 117.784 21.6862 117.784 21.9119C117.784 22.117 117.912 22.2862 118.169 22.4196C118.435 22.5427 118.912 22.6657 119.599 22.7888C120.851 23.0247 121.743 23.353 122.277 23.7735C122.82 24.1838 123.092 24.7582 123.092 25.4967C123.092 25.9993 122.938 26.4403 122.63 26.8199C122.333 27.1994 121.902 27.4917 121.338 27.6968C120.784 27.902 120.143 28.0045 119.415 28.0045C118.307 28.0045 117.384 27.7481 116.645 27.2353C115.917 26.7224 115.44 26.0044 115.215 25.0813Z" fill="white"/>
<path d="M125.695 23.712C125.695 22.8606 125.869 22.1067 126.218 21.4503C126.567 20.7938 127.054 20.2861 127.68 19.9271C128.306 19.5681 129.029 19.3886 129.849 19.3886C130.639 19.3886 131.342 19.5732 131.957 19.9425C132.583 20.3118 133.07 20.8297 133.419 21.4964C133.767 22.1632 133.942 22.9222 133.942 23.7735V24.4197H127.895C127.926 24.9326 128.121 25.348 128.48 25.6659C128.839 25.9839 129.311 26.1429 129.895 26.1429C130.306 26.1429 130.685 26.0557 131.034 25.8813C131.383 25.6967 131.762 25.3839 132.172 24.9428L133.542 26.3429C133.07 26.866 132.526 27.2763 131.911 27.5737C131.295 27.8609 130.624 28.0045 129.895 28.0045C129.065 28.0045 128.331 27.825 127.695 27.466C127.059 27.107 126.567 26.6045 126.218 25.9583C125.869 25.3018 125.695 24.553 125.695 23.712ZM131.726 22.8196C131.685 22.3683 131.485 21.9939 131.126 21.6965C130.777 21.399 130.352 21.2503 129.849 21.2503C129.326 21.2503 128.895 21.3939 128.557 21.6811C128.218 21.9683 128.008 22.3478 127.926 22.8196H131.726Z" fill="white"/>
</svg>
