<svg width="98" height="44" viewBox="0 0 98 44" fill="none" xmlns="http://www.w3.org/2000/svg">
<path d="M18.719 13.1309C18.4485 13.0695 18.1868 12.8853 18.0821 12.5257C17.9687 12.2099 18.0036 11.8679 18.0647 11.5346C18.3613 9.86809 18.6405 8.17529 19.0243 6.51758C19.3384 5.15808 19.7921 3.83366 20.5947 2.69343C21.1879 1.87773 22.0255 1.1936 23.02 0.939238C24.7038 0.518231 25.4017 2.1584 24.8085 3.57053C24.3112 4.73707 23.1334 5.35104 22.261 6.19305C20.6645 7.73674 20.1672 10.368 19.6961 12.4468C19.574 12.973 19.1203 13.2274 18.719 13.1309Z" fill="url(#paint0_linear_873_4556)"/>
<path d="M15.6217 10.991C15.0285 10.9735 14.4701 10.8946 13.9292 10.5876C13.4145 10.2894 12.7514 9.77187 12.1058 9.99114C11.4254 10.228 11.1636 11.1928 10.614 11.6664C9.85501 12.333 8.93897 12.6926 8.08399 13.2101C7.35116 13.6486 6.63578 14.131 5.97274 14.6836C4.64666 15.7624 3.49507 17.0518 2.57903 18.4902C0.773121 21.2882 -0.125471 24.6211 0.014116 27.9453C0.371808 37.2163 8.34572 44.3558 17.6632 43.5577C25.9599 42.856 32.4594 35.8129 32.5205 27.4454C32.5379 24.6211 31.8225 21.8056 30.4354 19.341C29.1006 16.9465 27.1725 14.9117 24.8606 13.4644C22.4964 11.9734 19.757 11.1314 16.9565 11.0086C16.5116 10.991 16.0754 11.0086 15.6217 10.991Z" fill="url(#paint1_linear_873_4556)"/>
<path d="M4.44554 4.89489C4.60257 4.44757 4.8294 4.03533 5.17837 3.75466C5.85886 3.19332 6.85342 3.29857 7.41176 3.97394C8.73784 5.57025 7.74328 8.00859 7.68221 9.85049C7.62987 11.3942 8.16205 12.9905 8.78146 14.3675C8.89488 14.6307 9.09553 14.9026 9.13915 15.2096C9.20022 15.7095 8.98212 16.1305 8.58081 16.3235C7.92649 16.648 7.50773 15.9639 7.22856 15.4639C6.59169 14.3061 6.05951 13.0694 5.54479 11.8678C5.02134 10.6136 4.58513 9.333 4.36702 7.99104C4.32631 7.7513 4.29432 7.51156 4.27106 7.27182C4.24197 7.04378 4.22743 6.81866 4.22743 6.59646C4.19254 6.0702 4.26233 5.44746 4.44554 4.89489Z" fill="url(#paint2_linear_873_4556)"/>
<path fill-rule="evenodd" clip-rule="evenodd" d="M22.4152 36.2158C16.9888 36.1983 12.173 31.2427 11.6583 25.1819C11.1435 19.1212 15.1043 14.1919 20.5221 14.1831C25.9572 14.1831 30.8079 19.1212 31.3401 25.217C31.8635 31.3216 27.8591 36.2509 22.4152 36.2158ZM30.6857 24.9012C30.4502 22.3401 29.3335 19.9281 27.545 18.1037C25.7566 16.2881 23.5057 15.2882 21.22 15.2882C21.1327 15.2882 21.0484 15.2941 20.967 15.3058C18.8819 15.3672 16.9713 16.2618 15.5754 17.8406C13.9091 19.7 13.1152 22.3664 13.3944 25.1468C13.6648 27.7606 14.8164 30.1989 16.666 31.997C18.498 33.795 20.7838 34.7423 23.1131 34.6721C25.1808 34.6019 27.0914 33.7161 28.496 32.1373C30.1448 30.2778 30.9475 27.6553 30.6857 24.9012Z" fill="white"/>
<path fill-rule="evenodd" clip-rule="evenodd" d="M97.8854 32.9796C97.8854 35.2952 96.3238 36.7775 94.038 36.7775H90.9758V40.3736C90.9758 40.3736 90.5745 40.47 89.9987 40.47C89.4404 40.47 89.0391 40.3736 89.0391 40.3736V29.2607H93.9682C96.3587 29.2607 97.8854 30.6641 97.8854 32.9796ZM96.0359 33.0235C96.0359 31.5412 95.3205 30.9974 93.6542 30.9974H90.9758V35.0408H93.6542C95.146 35.0408 96.0359 34.5146 96.0359 33.0235Z" fill="black"/>
<path fill-rule="evenodd" clip-rule="evenodd" d="M61.9506 37.8124C62.4479 38.4527 63.5995 40.3297 63.5995 40.3297C63.5995 40.3297 63.1633 40.4788 62.5002 40.4788C61.8285 40.4788 61.3661 40.3911 61.3661 40.3911H61.3835C61.3835 40.3735 60.5896 38.8912 60.2756 38.4001C59.7347 37.5581 59.3246 37.0318 58.8099 36.6196C58.3301 36.2599 57.6758 36.1547 56.7946 36.1547H55.5471V40.3911C55.5296 40.3911 55.1283 40.4788 54.5699 40.4788C54.0116 40.4788 53.6016 40.3911 53.6016 40.3911V29.2432H58.3911C60.991 29.2432 62.7969 29.9448 62.7969 32.5761C62.7969 34.0584 61.907 35.1987 60.3977 35.6372C59.9179 35.7775 59.6561 35.7337 59.6387 35.8214C59.6213 35.953 60.136 36.0319 60.7118 36.4968C61.1916 36.8739 61.5667 37.3212 61.9506 37.8124ZM60.8688 32.5761C60.8688 31.1991 60.0924 30.8746 58.426 30.8746H55.5471V34.497H58.0858C59.7434 34.497 60.8688 34.0233 60.8688 32.5761Z" fill="black"/>
<path d="M84.8454 29.261H84.8541V35.8568C84.8541 37.6548 83.7985 38.7951 82.0624 38.7951C80.3175 38.7951 79.2619 37.6548 79.2619 35.8568V29.261C79.2619 29.2435 78.8519 29.1558 78.2848 29.1558C77.7177 29.1558 77.3164 29.2435 77.3164 29.261V35.9357C77.3164 39.181 79.4015 40.6107 82.0624 40.6107C84.7145 40.6107 86.7822 39.181 86.7822 35.9357V29.261C86.7822 29.2435 86.3983 29.1558 85.8225 29.1558C85.2641 29.1558 84.8454 29.2435 84.8454 29.261Z" fill="black"/>
<path d="M46.3172 30.8225C47.8701 30.8225 49.0479 31.4014 50.0163 32.7433L51.447 31.6821C50.1559 29.9015 48.7687 29.042 46.1602 29.042C42.9758 29.042 40.5156 31.5154 40.5156 34.8571C40.5156 38.1989 42.8799 40.6109 45.8025 40.6109C46.6226 40.6109 47.3728 40.4355 47.9923 40.1724C48.5681 39.9355 48.8996 39.7514 49.266 39.497C49.423 39.3917 49.5975 39.2777 49.7196 39.3128C49.8156 39.3567 49.8243 39.4531 49.8243 39.5759C49.8243 39.9355 49.8243 40.3566 49.8243 40.3566C49.8243 40.3566 50.121 40.453 50.5572 40.453C50.9934 40.453 51.3074 40.3302 51.3074 40.3302L51.29 34.3835H46.3347V35.8746V35.9798H49.5975C49.5801 37.1727 48.507 38.8304 46.0642 38.8304C43.761 38.8304 42.4088 36.9797 42.4088 34.8571C42.4088 32.4364 44.3106 30.8225 46.3172 30.8225Z" fill="black"/>
<path fill-rule="evenodd" clip-rule="evenodd" d="M69.9229 40.6109C66.7386 40.6109 64.1562 38.0235 64.1562 34.8221C64.1562 31.6294 66.7386 29.042 69.9229 29.042C73.1073 29.042 75.6809 31.6294 75.6809 34.8221C75.6809 38.0235 73.1073 40.6109 69.9229 40.6109ZM73.7529 34.8308C73.7529 32.6995 72.0429 30.9804 69.9229 30.9804C67.803 30.9804 66.0843 32.6995 66.0843 34.8308C66.0843 36.9622 67.803 38.6813 69.9229 38.6813C72.0429 38.6813 73.7529 36.9622 73.7529 34.8308Z" fill="black"/>
<path d="M63.9883 16.0861H68.0189V25.436C68.0189 25.436 68.4376 25.5325 69.0396 25.5325C69.6328 25.5325 70.069 25.436 70.069 25.436V16.0861H74.0909V14.2881H63.9883V16.0861Z" fill="black"/>
<path d="M60.4476 14.2884V22.3752C58.5457 19.2966 56.6351 16.4986 54.7856 14.2884C54.7856 14.2884 54.393 14.1831 53.8347 14.1831C53.2763 14.1831 52.875 14.2884 52.875 14.2884V25.4363C52.875 25.4363 53.2589 25.5327 53.8259 25.5327C54.3668 25.5327 54.7682 25.4363 54.7682 25.4363V16.7969C56.8096 19.6036 58.7028 22.498 60.4127 25.4363C60.4127 25.4363 60.814 25.5327 61.3811 25.5327C61.9394 25.5327 62.3407 25.4363 62.3407 25.4363V14.2884C62.3407 14.2884 61.9569 14.1831 61.3898 14.1831C60.8489 14.1831 60.4476 14.2884 60.4476 14.2884Z" fill="black"/>
<path fill-rule="evenodd" clip-rule="evenodd" d="M51.4732 25.4364C51.4121 25.454 51.0283 25.5329 50.4961 25.5329C49.9203 25.5329 49.5801 25.454 49.519 25.4364C49.519 25.4364 49.5132 25.4364 49.5015 25.4364C49.5015 25.4364 49.5015 25.4189 49.5015 25.4013L49.2224 24.4629L49.1002 23.998L48.9432 23.5331L48.8385 23.1823C48.76 22.9981 48.6466 22.9367 48.4023 22.8227C48.0533 22.6736 47.2682 22.4543 46.0031 22.2964C44.9824 22.1736 43.4382 22.3841 43.4382 22.3841L43.0544 23.5419L42.4873 25.4189C42.4873 25.4189 42.4844 25.4247 42.4786 25.4364C42.4786 25.4364 42.0598 25.5329 41.4927 25.5329C40.9344 25.5329 40.5505 25.454 40.5156 25.4364L40.5331 25.3575C40.5738 25.1879 40.6203 25.0271 40.6727 24.8751L40.9693 23.9191L41.1263 23.4542L41.2746 22.963L41.5887 22.0245C41.6934 21.7146 41.8039 21.4047 41.9202 21.0948L42.0685 20.6036C42.1296 20.4545 42.1994 20.2966 42.243 20.1388L42.6007 19.2178C43.0631 17.9636 43.5778 16.7269 44.1274 15.5252C44.2496 15.2182 44.3892 14.92 44.5288 14.6043L44.7032 14.2622H47.3118L47.4688 14.5867C47.6142 14.8908 47.7538 15.1978 47.8876 15.5077C48.4285 16.7181 48.9432 17.946 49.4056 19.2003L49.7633 20.1388C49.8156 20.2966 49.8738 20.4516 49.9378 20.6036L50.0948 21.0773C50.2053 21.3872 50.3129 21.7 50.4176 22.0158L50.7317 22.963L50.8887 23.4366L51.0283 23.9191L51.3249 24.8751C51.3424 24.9569 51.3627 25.033 51.386 25.1031L51.4645 25.3575L51.4732 25.4364ZM48.1318 21.0422C48.0853 20.9486 48.0475 20.8551 48.0184 20.7615L47.6956 19.8405C47.242 18.6243 46.7592 17.4227 46.2474 16.2357C46.2183 16.1597 46.1864 16.0866 46.1515 16.0164C46.0904 15.9199 46.0468 15.8848 45.9944 15.8848C45.9333 15.8848 45.8723 15.9199 45.8287 16.0427C45.7938 16.107 45.7618 16.1743 45.7327 16.2444C45.2209 17.4315 44.7381 18.636 44.2845 19.8581L43.9617 20.779C43.9268 20.8755 43.8657 21.1036 43.8221 21.2C44.3979 21.0159 45.1743 20.9018 45.9944 20.8755C46.8668 20.8404 47.5648 20.9632 48.1318 21.0422Z" fill="black"/>
<defs>
<linearGradient id="paint0_linear_873_4556" x1="7.37475" y1="7.4666" x2="14.0362" y2="-4.99511" gradientUnits="userSpaceOnUse">
<stop stop-color="#0066FF"/>
<stop offset="0.2" stop-color="#1677FF"/>
<stop offset="1" stop-color="#04A6FF"/>
</linearGradient>
<linearGradient id="paint1_linear_873_4556" x1="-10.8944" y1="13.5509" x2="28.6467" y2="-0.764138" gradientUnits="userSpaceOnUse">
<stop stop-color="#0066FF"/>
<stop offset="0.2" stop-color="#1677FF"/>
<stop offset="1" stop-color="#04A6FF"/>
</linearGradient>
<linearGradient id="paint2_linear_873_4556" x1="-9.03124" y1="21.3063" x2="-12.634" y2="7.93171" gradientUnits="userSpaceOnUse">
<stop stop-color="#0066FF"/>
<stop offset="0.2" stop-color="#1677FF"/>
<stop offset="1" stop-color="#04A6FF"/>
</linearGradient>
</defs>
</svg>
