<svg width="113" height="17" viewBox="0 0 113 17" fill="none" xmlns="http://www.w3.org/2000/svg">
<path d="M14.6393 15.6467V0.0791016H18.1852V15.6467H14.6393ZM83.569 9.83045C83.569 6.06829 80.6501 3.73316 77.2339 3.73316C73.796 3.73316 70.8987 6.08991 70.8987 9.83045C70.8987 13.5926 73.8176 15.9494 77.2339 15.9494C80.6501 15.9494 83.569 13.571 83.569 9.83045ZM80.0663 9.83045C80.0663 11.798 78.7474 12.9007 77.2122 12.9007C75.6771 12.9007 74.3582 11.798 74.3582 9.83045C74.3582 7.84126 75.6771 6.7818 77.2122 6.7818C78.7474 6.7818 80.0663 7.84126 80.0663 9.83045ZM13.2122 11.171C13.2122 9.41964 12.3041 8.0791 10.6825 7.4737C12.2177 6.63045 12.7582 5.52775 12.7582 4.23045C12.7582 1.96018 11.1149 0.0791016 7.43927 0.100723H0.390625V15.6683H7.74198C11.4393 15.6467 13.2122 13.8088 13.2122 11.171ZM8.99603 4.68451C8.99603 5.74397 8.32576 6.34937 7.02846 6.34937H4.08792V3.10613H7.02846C8.21765 3.10613 8.99603 3.62505 8.99603 4.68451ZM9.32035 10.9332C9.32035 11.9494 8.60684 12.6196 7.28792 12.6196H4.08792V9.24667H7.28792C8.5636 9.24667 9.32035 9.89532 9.32035 10.9332ZM44.0879 6.91153C43.1149 4.8791 41.2987 3.75478 38.5528 3.75478C35.3095 3.75478 32.4122 5.78721 32.4122 9.83045C32.4122 13.7656 34.9636 15.9494 38.5095 15.9494C40.996 15.9494 43.0933 14.9548 44.0879 12.8142L41.2339 11.344C40.715 12.2953 39.9149 12.9007 38.6393 12.9007C36.996 12.9007 35.9366 11.7332 35.9366 9.83045C35.9366 7.92775 37.1474 6.7818 38.6177 6.7818C39.7636 6.7818 40.6285 7.30072 41.169 8.42505L44.0879 6.91153ZM96.3474 6.91153C95.3744 4.8791 93.5582 3.75478 90.8122 3.75478C87.569 3.75478 84.6717 5.78721 84.6717 9.83045C84.6717 13.7656 87.2231 15.9494 90.769 15.9494C93.2555 15.9494 95.3528 14.9548 96.3474 12.8142L93.4933 11.344C92.9744 12.2953 92.1744 12.9007 90.8987 12.9007C89.2555 12.9007 88.196 11.7332 88.196 9.83045C88.196 7.92775 89.4068 6.7818 90.8771 6.7818C92.0231 6.7818 92.8879 7.30072 93.4285 8.42505L96.3474 6.91153ZM66.6177 15.6467L63.6555 10.4142H61.3852V15.6467H57.7312V0.0791016H64.3258C67.8933 0.0791016 70.3798 1.78721 70.3798 5.13856C70.3798 7.2791 69.3204 8.79261 67.4393 9.72235L70.8555 15.6467H66.6177ZM61.4068 7.32235H64.1312C65.8176 7.32235 66.6393 6.37099 66.6393 5.24667C66.6393 3.90613 65.8609 3.17099 64.1312 3.17099H61.4068V7.32235ZM31.8285 15.4521V13.0088C31.6771 13.0521 31.4609 13.0953 31.2231 13.0953C30.769 13.0953 30.5312 12.8575 30.5312 12.4467V8.40343C30.5312 5.3764 28.4987 3.7764 25.1474 3.7764C22.9636 3.7764 21.1041 4.5764 19.9366 5.61424L21.9041 7.81964C22.6825 7.12775 23.7204 6.69532 24.7366 6.69532C26.2933 6.69532 27.0285 7.4737 27.0285 8.74937V9.11694C26.2933 8.94397 25.3636 8.77099 24.2393 8.77099C21.4068 8.77099 19.569 10.1332 19.569 12.3818C19.569 14.6953 21.1041 15.9061 23.4825 15.9061C25.1041 15.9061 26.5528 15.2359 27.3095 14.371C27.7636 15.5169 28.7582 15.8196 29.7312 15.8196C30.4014 15.8413 31.1798 15.7332 31.8285 15.4521ZM27.0501 11.798C27.0501 12.8575 26.0339 13.5494 24.8663 13.5494C23.7636 13.5494 23.2231 12.9872 23.2231 12.2088C23.2231 11.3872 23.8285 10.7818 25.0609 10.7818C25.8177 10.7818 26.4879 10.9115 27.0501 11.0413V11.798ZM109.018 15.6467L104.845 8.40343L108.758 4.14397H104.823L100.693 8.72775V0.100723H97.169V15.6683H100.693V12.8575L102.38 11.0629L105.018 15.6683H109.018V15.6467ZM56.8014 15.6467L52.6285 8.40343L56.542 4.14397H52.5636L48.4771 8.72775V0.100723H44.9528V15.6683H48.4771V12.8575L50.1636 11.0629L52.8014 15.6683H56.8014V15.6467ZM111.18 13.4845C111.915 13.4845 112.347 13.9386 112.347 14.6305C112.347 15.3223 111.915 15.7764 111.18 15.7764C110.445 15.7764 110.012 15.3223 110.012 14.6305C110.012 13.9386 110.445 13.4845 111.18 13.4845ZM111.18 15.625C111.764 15.625 112.153 15.2791 112.153 14.6305C112.153 13.9818 111.742 13.6359 111.18 13.6359C110.596 13.6359 110.207 13.9818 110.207 14.6305C110.185 15.3007 110.596 15.625 111.18 15.625ZM110.726 14.0467H111.201C111.483 14.0467 111.634 14.198 111.634 14.4142C111.634 14.6088 111.547 14.7169 111.396 14.7818L111.612 15.1926H111.396L111.201 14.825H110.942V15.1926H110.726V14.0467ZM110.942 14.2196V14.6305H111.18C111.331 14.6305 111.418 14.5872 111.418 14.4359C111.418 14.3061 111.353 14.2413 111.201 14.2413H110.942V14.2196Z" fill="black"/>
</svg>
