<svg width="142" height="26" viewBox="0 0 142 26" fill="none" xmlns="http://www.w3.org/2000/svg">
<path d="M28.5407 7.05863C23.4288 7.05863 19.4347 10.9181 19.4347 16.0847C19.4347 21.2514 23.3279 25.0778 28.5407 25.0778C33.7535 25.0778 37.7144 21.1854 37.7144 16.0517C37.7144 10.9511 33.8212 7.05863 28.5407 7.05863ZM28.5752 21.3543C25.6641 21.3543 23.531 19.1057 23.531 16.086C23.531 13.032 25.6297 10.7847 28.5407 10.7847C31.4862 10.7847 33.6181 13.0663 33.6181 16.086C33.6181 19.1057 31.4862 21.3543 28.5752 21.3543ZM38.8308 10.9854H41.37V24.7437H45.4319V7.39402H38.8308V10.9854ZM9.21219 10.7834C11.3453 10.7834 13.0378 12.0919 13.6803 14.0381H17.9798C17.2006 9.87762 13.748 7.05863 9.24667 7.05863C4.13481 7.05863 0.140625 10.9181 0.140625 16.086C0.140625 21.2539 4.03391 25.0791 9.24667 25.0791C13.6471 25.0791 17.1674 22.2601 17.9465 18.0653H13.6803C13.071 20.0115 11.3785 21.3543 9.24542 21.3543C6.29989 21.3543 4.23571 19.1057 4.23571 16.086C4.23701 13.032 6.26796 10.7834 9.21219 10.7834ZM116.009 14.4078L113.031 13.9721C111.609 13.7714 110.594 13.3013 110.594 12.1936C110.594 10.9854 111.914 10.382 113.708 10.382C115.671 10.382 116.924 11.2204 117.195 12.5962H121.121C120.681 9.10648 117.973 7.05988 113.81 7.05988C109.51 7.05988 106.667 9.24117 106.667 12.3282C106.667 15.2806 108.529 16.9931 112.286 17.5292L115.265 17.9649C116.721 18.1656 117.533 18.7373 117.533 19.8108C117.533 21.1866 116.112 21.757 114.148 21.757C111.744 21.757 110.39 20.7839 110.187 19.3077H106.193C106.566 22.6971 109.24 25.0791 114.114 25.0791C118.549 25.0791 121.493 23.0655 121.493 19.6088C121.493 16.5218 119.361 14.9109 116.009 14.4078ZM43.4009 0.246793C41.9116 0.246793 40.7942 1.32027 40.7942 2.79646C40.7942 4.27266 41.9104 5.34613 43.4009 5.34613C44.8903 5.34613 46.008 4.27266 46.008 2.79646C46.008 1.32027 44.8903 0.246793 43.4009 0.246793ZM103.011 13.3343C103.011 9.57652 100.71 7.05988 95.8353 7.05988C91.2317 7.05988 88.6592 9.37582 88.1509 12.9329H92.1795C92.3825 11.5571 93.4657 10.4163 95.7677 10.4163C97.8332 10.4163 98.8485 11.322 98.8485 12.4298C98.8485 13.873 96.986 14.2414 94.6845 14.4764C91.5703 14.8118 87.7114 15.8853 87.7114 19.9124C87.7114 23.0338 90.0476 25.0461 93.7713 25.0461C96.682 25.0461 98.5099 23.8379 99.4247 21.9247C99.5602 23.6359 100.846 24.7437 102.641 24.7437H105.01V21.1536H103.013V13.3343H103.011ZM99.017 17.6969C99.017 20.0128 96.986 21.724 94.5144 21.724C92.9909 21.724 91.7046 21.0863 91.7046 19.7447C91.7046 18.0335 93.7697 17.5635 95.6656 17.3628C97.4935 17.1951 98.5088 16.7923 99.017 16.02V17.6969ZM77.4546 7.05863C75.186 7.05863 73.2906 7.99871 71.9367 9.57527V0.0791016H67.8748V24.7437H71.8688V22.4621C73.2226 24.106 75.153 25.0791 77.4546 25.0791C82.3287 25.0791 86.0191 21.2539 86.0191 16.086C86.0191 10.9181 82.2612 7.05863 77.4546 7.05863ZM76.8454 21.3543C73.9343 21.3543 71.8012 19.1057 71.8012 16.086C71.8012 13.0663 73.9677 10.7847 76.8784 10.7847C79.8241 10.7847 81.888 13.0333 81.888 16.086C81.888 19.1057 79.7561 21.3543 76.8454 21.3543ZM58.1592 7.05863C55.5191 7.05863 53.7921 8.13211 52.7768 9.64258V7.39402H48.7479V24.7425H52.8098V15.3136C52.8098 12.6623 54.5022 10.7834 57.0072 10.7834C59.3433 10.7834 60.7981 12.4273 60.7981 14.8105V24.7437H64.86V14.5095C64.8616 10.1457 62.5942 7.05863 58.1592 7.05863ZM140.856 15.5156C140.856 10.5496 137.2 7.05988 132.291 7.05988C127.079 7.05988 123.253 10.9524 123.253 16.086C123.253 21.489 127.349 25.0791 132.359 25.0791C136.591 25.0791 139.908 22.5955 140.754 19.0727H136.522C135.913 20.6162 134.423 21.489 132.426 21.489C129.819 21.489 127.855 19.8781 127.416 17.0591H140.855V15.5156H140.856ZM127.653 14.1728C128.297 11.7565 130.125 10.5827 132.224 10.5827C134.525 10.5827 136.286 11.8912 136.692 14.1728H127.653Z" fill="#0052FF"/>
</svg>
