<svg width="99" height="32" viewBox="0 0 99 32" fill="none" xmlns="http://www.w3.org/2000/svg">
<path d="M97.9531 11.5301C97.3877 9.3791 92.9903 4.44441 89.7864 0.458693C89.7236 0.395428 89.5352 0.0791016 89.1582 0.0791016C88.8441 0.0791016 88.5929 0.395428 88.7185 0.648489C88.8441 0.901551 91.9223 7.35461 91.357 9.44237C90.7916 11.5934 87.9647 11.1505 87.5249 11.1505C87.2736 11.1505 87.4621 11.3403 87.7134 11.5934C89.2839 12.9852 90.289 14.9464 90.289 17.4771V19.375C90.289 19.4383 90.289 19.4383 90.3518 19.4383C93.9326 19.122 99.398 16.9077 97.9531 11.5301Z" fill="#13C636"/>
<path d="M84.07 23.9932C84.07 25.8279 81.62 26.8401 80.0495 26.8401C78.3533 26.8401 75.9661 25.8279 75.9661 23.9932V17.5401C75.9661 15.7054 78.3533 14.883 80.0495 14.883C81.62 14.883 84.07 15.7687 84.07 17.5401V23.9932ZM80.0495 10.834C76.2802 10.8972 71.8828 13.0483 71.8828 17.4768V24.2462C71.8828 28.7381 76.2802 30.8891 80.0495 30.8891C83.7559 30.8258 88.1533 28.7381 88.1533 24.2462V17.5401C88.1533 13.1115 83.7559 10.8972 80.0495 10.834Z" fill="#13C636"/>
<path d="M55.6758 23.9932C55.6758 25.8279 53.2258 26.8401 51.6553 26.8401C49.9591 26.8401 47.5719 25.8279 47.5719 23.9932V17.5401C47.5719 15.7054 49.9591 14.883 51.6553 14.883C53.2258 14.883 55.6758 15.7687 55.6758 17.5401V23.9932ZM51.5924 10.834C47.8232 10.8972 43.4258 13.0483 43.4258 17.4768V24.2462C43.4258 28.7381 47.8232 30.8891 51.5924 30.8891C55.2989 30.8258 59.6963 28.7381 59.6963 24.2462V17.5401C59.6963 13.1115 55.2989 10.8972 51.5924 10.834Z" fill="#13C636"/>
<path d="M10.6299 11.5934C10.8811 11.3403 11.0696 11.1505 10.8183 11.1505C10.3786 11.1505 7.55164 11.5934 6.98626 9.44237C6.42087 7.29135 9.49908 0.901551 9.62472 0.648489C9.68754 0.395428 9.49908 0.0791016 9.12216 0.0791016C8.80805 0.0791016 8.55677 0.458693 8.49395 0.458693C5.35293 4.44441 0.89267 9.3791 0.327285 11.5301C-1.11759 16.9077 4.47344 19.122 7.99139 19.5016C8.05421 19.5016 8.05421 19.4383 8.05421 19.4383V17.5403C8.11703 14.9464 9.05934 12.9852 10.6299 11.5934Z" fill="#13C636"/>
<path d="M43.1743 12.3526C40.1589 11.5302 37.9602 11.2139 34.6936 11.2139C31.4897 11.2139 29.2282 11.5302 26.2128 12.3526C26.0871 12.4159 26.0243 12.5424 26.0871 12.6057C27.0923 13.4914 27.532 14.6302 27.7205 15.8955C29.3538 15.5159 30.8615 15.2628 32.6205 15.1363V30.7628C32.6205 30.8261 32.6833 30.8261 32.7461 30.8261H36.641C36.7038 30.8261 36.7666 30.8261 36.7666 30.7628V15.1363C38.4628 15.2628 39.8448 15.4526 41.4782 15.8955C41.7295 14.6302 42.232 13.4282 43.3 12.6057C43.3 12.4792 43.2371 12.3526 43.1743 12.3526Z" fill="#13C636"/>
<path d="M72.007 11.0241C71.6929 10.9609 70.8763 10.8343 70.1224 10.8976C66.416 11.0241 62.207 13.2384 62.207 17.5405V30.8895C62.207 30.9527 62.2698 30.9527 62.3327 30.9527H66.2275C66.2904 30.9527 66.3532 30.9527 66.3532 30.8895V17.5405C66.3532 16.0854 68.1122 15.2629 69.557 14.9466C69.9968 13.5548 70.8134 12.4792 72.0698 11.467C72.2583 11.2772 72.1955 11.0241 72.007 11.0241Z" fill="#13C636"/>
<path d="M21.8763 18.6789C21.8763 18.7422 21.8763 18.7422 21.8135 18.8055C21.8135 18.8687 21.7507 18.8687 21.6879 18.8687H14.2751V17.5402C14.2751 15.7055 16.4738 14.8198 18.1699 14.8198C19.8033 14.8198 21.8763 15.7055 21.8763 17.5402V18.6789ZM18.1699 10.7075C14.3379 10.7708 10.1289 12.9851 10.1289 17.4769V24.3096C10.1289 28.8647 14.3379 31.0157 18.1699 31.0789C20.934 31.0789 24.0122 29.9402 25.5199 27.4728C25.5828 27.4096 25.5199 27.283 25.4571 27.2198C24.1379 26.4606 23.384 26.0177 22.0648 25.3218C22.002 25.3218 22.002 25.3218 21.9392 25.3851C21.2481 26.5871 19.4263 27.2198 18.1699 27.2198C16.4738 27.2198 14.2751 26.1443 14.2751 24.3096V22.2851H24.8917C25.4571 22.2851 25.8969 21.8422 25.8969 21.2728V17.5402C25.8969 12.9851 21.9392 10.7708 18.1699 10.7075Z" fill="#13C636"/>
</svg>
