<svg width="475" height="96" viewBox="0 0 475 96" fill="#E0E0E0" xmlns="http://www.w3.org/2000/svg">
<path d="M47.9106 0H20.0223V2.32402H28.9609V48.4469C28.9609 62.2123 25.0279 66.1453 16.4469 66.1453C13.229 66.5028 10.3687 64.1788 10.0112 60.9609C10.0112 60.6033 10.0112 60.2458 10.0112 59.8883C10.0112 54.8827 9.65363 51.8436 5.18436 51.8436C0.715084 51.8436 0 56.4916 0 57.9218C0 64.3575 2.86033 69.1844 15.5531 69.1844C30.7486 69.1844 38.7933 64.1788 38.7933 47.1955V2.32402H48.0894L47.9106 0Z"/>
<path d="M51.486 58.2793C50.0559 58.2793 48.6257 58.8156 47.5531 59.8882C46.4804 60.9609 45.9441 62.391 45.9441 63.8212C45.9441 65.2514 46.4804 66.6815 47.5531 67.5754C48.6257 68.648 50.0559 69.1843 51.486 69.1843C52.9162 69.1843 54.3464 68.648 55.419 67.5754C56.4916 66.5028 57.0279 65.2514 57.0279 63.8212C57.0279 60.7821 54.7039 58.4581 51.6648 58.4581H51.486"/>
<path d="M113.52 58.2794C110.659 58.2794 108.156 60.6034 107.978 63.4637V63.6425C107.978 65.0727 108.693 66.5028 109.765 67.3967C110.838 68.4693 112.268 69.0056 113.698 69.0056C115.128 69.0056 116.559 68.4693 117.631 67.3967C118.704 66.5028 119.24 65.0727 119.24 63.6425C119.24 62.2123 118.704 60.7822 117.631 59.7095C116.559 58.6369 115.307 58.1006 113.877 58.1006"/>
<path d="M94.2123 0H66.6816V2.32402H74.7263V54.8827C74.905 57.0279 74.7263 59.1732 74.0112 61.3184C73.2961 62.7486 72.0447 64 70.6145 64.3575C69.0056 64.8939 67.2179 65.2514 65.4302 65.2514V67.3967H94.5698V65.2514C92.6034 65.2514 90.8157 65.0726 89.0279 64.5363C87.419 64 86.1676 62.9274 85.6313 61.4972C85.095 60.067 84.7374 58.6369 84.9162 57.2067V38.9721H92.2458C113.341 38.9721 119.24 30.5698 119.24 19.3073C119.24 8.04469 115.486 0 94.2123 0ZM90.2793 36.2905H84.7374V2.68156H89.743C106.011 2.68156 109.944 9.29609 109.944 20.0223C109.944 30.7486 103.508 36.648 90.6369 36.648"/>
<path d="M206.302 61.1397C205.765 59.7095 205.587 58.1006 205.765 56.4916V2.32402H213.095V0.178772H195.754L174.659 51.486C174.659 51.6648 174.48 51.8436 174.302 51.8436C174.123 51.8436 173.944 51.6648 173.765 51.486C173.765 51.486 151.955 0.715085 151.777 0.178772H132.469V2.32402H140.871V59.352C140.871 60.6034 140.335 61.676 139.799 62.7486C139.084 63.8212 138.011 64.5363 136.76 64.8939C135.508 65.2514 134.078 65.2514 132.827 65.2514V67.3967H151.955V65.2514C150.704 65.2514 149.631 65.0726 148.559 64.7151C147.128 64.3575 146.056 63.6425 145.162 62.5698C144.447 61.4972 144.089 60.4246 143.911 59.1732L143.732 54.3464V9.29609H144.804C144.804 9.29609 169.654 66.6816 169.654 67.3967H171.978L195.397 9.8324H195.933V56.1341C195.933 57.743 195.754 59.352 195.397 60.9609C194.86 62.3911 193.788 63.4637 192.536 64C190.927 64.5363 189.318 64.8939 187.709 64.8939V67.0391H214.346V64.8939C212.737 64.8939 210.95 64.5363 209.341 64C207.911 63.2849 206.838 62.0335 206.302 60.6034"/>
<path d="M242.235 18.0558C227.933 18.0558 218.994 27.3519 218.994 43.7989C218.994 67.9329 237.765 69.3631 241.877 69.3631C249.922 69.3631 265.117 64.3575 265.117 43.2626C264.939 26.8156 255.285 18.0558 242.235 18.0558ZM242.056 66.324C231.33 66.324 229.721 60.9609 229.721 43.9776C229.721 30.7486 230.614 20.7374 242.056 20.7374C254.391 20.7374 254.57 31.1061 254.57 42.905C254.57 60.2458 251.531 66.324 242.056 66.324Z"/>
<path d="M302.302 18.7709C293.721 18.7709 291.218 23.7765 288.715 28.9609H288C288 28.9609 286.749 21.6313 286.391 19.3072H269.765V21.81H278.704V55.2402C278.883 57.5642 278.525 59.8883 277.631 62.0335C276.737 63.6424 274.592 64.5363 271.374 64.5363H269.944V67.5754H297.475V64.5363H296.223C292.648 64.5363 291.039 63.8212 290.145 62.2123C289.251 60.067 288.715 57.5642 289.073 55.2402V37.8994C289.073 32.1788 293.542 25.3855 298.726 25.3855C304.089 25.3855 304.089 33.7877 310.346 30.391C313.564 28.4246 312.849 18.7709 302.302 18.7709Z"/>
<path d="M412.246 62.3911C409.207 62.3911 408.313 60.7821 408.134 58.1006V31.6425C408.492 28.067 407.24 24.3128 404.737 21.6313C402.235 19.1285 397.229 17.6983 390.078 17.6983C384.715 17.3408 379.531 18.5922 374.883 21.4525C372.201 23.0615 370.592 26.1006 370.592 29.1397C370.413 30.3911 370.95 31.6425 371.844 32.5363C372.737 33.2514 373.81 33.6089 374.883 33.6089C377.564 33.6089 379.173 32.1788 379.709 28.6034C379.709 26.4581 380.603 24.4916 381.855 22.8827C383.642 21.2737 386.145 20.3799 388.469 20.7374C391.151 20.3799 394.011 21.4525 395.799 23.5978C397.229 25.743 397.765 28.067 397.765 30.5698V38.9721C389.006 39.6871 368.089 41.4749 368.983 57.2067C369.698 63.8212 375.419 68.8268 382.034 68.648C388.29 68.4693 394.19 65.6089 398.123 60.6034C399.017 65.0726 402.95 68.1117 407.419 67.933C413.855 67.933 417.788 64.7151 418.145 57.0279H416.536C416.179 60.6033 414.034 62.3911 412.246 62.3911ZM397.765 57.2067C397.765 57.3855 397.765 57.3855 397.765 57.5642V57.743C394.905 60.9609 390.972 62.9274 386.682 63.4637C382.57 63.6425 378.994 60.4246 378.816 56.1341C378.816 55.7765 378.816 55.419 378.816 55.0614C378.816 46.1229 391.151 41.6536 397.944 41.6536L397.765 57.2067Z"/>
<path d="M468.737 62.0335C467.486 59.8882 466.95 57.3855 466.95 54.8827V33.0726C467.128 30.2123 466.592 27.5307 465.341 25.0279C464.268 23.0614 462.48 21.2737 460.514 20.2011C458.19 19.1285 455.687 18.5922 453.184 18.5922C446.57 18.4134 440.492 21.9888 437.452 27.8882H436.38L434.592 19.1285H419.754V21.6313H427.263V54.8827C427.263 56.8491 427.084 58.6369 426.726 60.6033C426.369 62.0335 425.296 63.2849 423.866 63.6424C422.614 64.1787 421.184 64.3575 419.754 64.3575V67.3966H443.531V64.3575C441.743 64.5363 439.955 63.6424 438.704 62.391C437.631 60.2458 437.095 57.9218 437.452 55.5977V42.905C436.916 38.257 437.631 33.6089 439.24 29.1396C441.207 25.743 444.961 23.5977 448.894 23.7765C451.575 23.419 454.257 24.8491 455.508 27.1732C456.76 30.7486 457.296 34.6815 457.117 38.4357V54.1676C457.296 56.1341 457.296 58.1005 457.117 60.067C456.938 61.4972 456.223 62.7486 454.972 63.4637C453.721 64.1788 452.469 64.5363 451.218 64.5363V67.5754H474.279V64.5363C471.419 64.1787 469.631 63.4637 468.737 62.0335Z"/>
<path d="M360.939 16.0894C359.33 16.8045 358.257 18.2346 358.078 19.8436C357.721 21.8101 357.006 22.8827 355.933 23.2402C354.86 23.5978 353.609 23.419 352.536 23.0615C348.246 19.3073 342.525 17.5196 336.983 17.8771C327.151 17.162 318.391 24.4916 317.676 34.324C317.676 35.0391 317.676 35.7542 317.676 36.4693C317.676 46.838 321.609 51.486 330.19 53.4525C330.726 53.4525 330.726 54.1676 330.19 54.1676C322.86 55.419 316.425 57.5643 316.425 64.7151C316.425 68.1117 318.57 71.1508 321.788 72.2235C326.436 73.8324 331.263 74.5475 336.089 74.3687C339.844 74.3687 343.777 74.5475 347.531 74.905C349.676 75.0838 351.821 75.7989 353.788 77.0503C355.397 78.4804 356.291 80.4469 356.112 82.5922C356.112 85.9888 353.966 89.0279 350.927 90.2793C346.816 92.2458 342.346 93.1397 337.877 92.9609C333.765 93.3184 329.475 92.4246 325.899 90.2793C323.754 88.6704 322.682 85.9888 323.397 83.486C324.112 81.5196 323.039 79.1955 320.894 78.4805H320.358C318.749 78.3017 317.14 79.0168 316.246 80.2682C315.531 81.5196 314.994 83.1285 315.173 84.7374C315.352 89.3855 318.57 93.1397 323.218 94.0335C327.508 95.4637 331.978 96 336.447 96C341.631 96.1788 346.816 95.2849 351.642 93.1397C357.363 90.6369 361.296 85.095 361.296 78.838C361.475 75.7989 360.581 72.9386 358.972 70.4358C354.145 63.8212 347.352 64.7151 331.978 64C324.648 64 323.218 62.7486 323.218 60.6034C323.218 57.2067 325.899 55.9553 336.447 54.3464C346.994 52.7374 356.827 48.8045 356.827 36.1117C356.827 33.0726 356.291 29.8548 354.86 26.9944C356.827 27.5307 358.972 27.5307 360.939 26.9944C362.726 26.4581 364.335 25.2067 365.229 23.5978C366.123 22.3464 366.48 20.5587 366.123 19.1285C365.229 16.4469 363.441 15.3743 360.939 16.0894ZM337.162 51.3073C330.905 51.3073 327.151 48.9832 327.151 36.2905C327.151 27.352 330.19 20.7374 337.162 20.7374C345.028 20.7374 347.173 26.8156 347.173 36.1117C346.994 49.3408 342.883 51.3073 337.162 51.3073Z"/>
</svg>
