<svg width="76" height="31" viewBox="0 0 76 31" fill="none" xmlns="http://www.w3.org/2000/svg">
<path d="M14.5733 29.5019L2.12127 21.3569C2.12127 21.3569 0.559744 20.4548 0.202272 18.7742C-0.299871 16.4146 1.3553 14.3915 1.3553 14.3915L17.5159 24.9665C18.7626 25.7828 19.1027 27.4529 18.3014 28.7127C17.4782 30.0068 15.7866 30.2923 14.5728 29.5019H14.5733Z" fill="#C8C8C8"/>
<path d="M2.77874 12.646C2.77874 12.646 0.87141 11.4889 0.87141 8.81231C0.87141 6.14503 2.77792 5.00203 2.77792 5.00203L9.58535 0.525489C10.1844 0.144055 10.909 0.0153166 11.6019 0.167198C12.2948 0.31908 12.9002 0.739333 13.2867 1.3368C13.6733 1.93427 13.8098 2.66077 13.6666 3.35871C13.5235 4.05665 13.1123 4.66976 12.5222 5.06503L6.78475 8.81885L16.5603 15.2159C16.5603 15.2159 18.3199 16.2289 18.6665 17.9389C19.1505 20.3244 17.5162 22.2899 17.5162 22.2899L2.77874 12.646ZM2.74264 29.9337C3.38158 29.9337 3.8365 29.7299 4.28028 29.4409L7.60338 27.2659L4.28028 25.0914C3.83242 24.8015 3.36231 24.5986 2.74264 24.5986C2.39081 24.5935 2.04148 24.6588 1.71497 24.7906C1.38846 24.9224 1.09128 25.118 0.840696 25.3663C0.590115 25.6145 0.391133 25.9102 0.255317 26.2364C0.119501 26.5625 0.0495605 26.9126 0.0495605 27.2661C0.0495605 27.6197 0.119501 27.9697 0.255317 28.2959C0.391133 28.622 0.590115 28.9178 0.840696 29.166C1.09128 29.4142 1.38846 29.6099 1.71497 29.7417C2.04148 29.8735 2.39081 29.9387 2.74264 29.9337Z" fill="#707070"/>
<path d="M15.592 6.15149C14.9528 6.15149 14.4979 6.35522 14.0541 6.64403L10.7307 8.81876L14.0541 10.9935C14.5019 11.2837 14.9723 11.4866 15.592 11.4866C15.9406 11.4866 16.2859 11.4176 16.608 11.2835C16.9301 11.1495 17.2227 10.953 17.4693 10.7053C17.7158 10.4576 17.9113 10.1635 18.0448 9.83986C18.1782 9.51622 18.2468 9.16934 18.2468 8.81903C18.2468 8.46873 18.1782 8.12185 18.0448 7.79821C17.9113 7.47457 17.7158 7.1805 17.4693 6.9328C17.2227 6.68509 16.9301 6.4886 16.608 6.35454C16.2859 6.22049 15.9406 6.15149 15.592 6.15149Z" fill="#C8C8C8"/>
<path d="M29.417 21.4662C30.1197 21.4662 30.7749 21.2748 31.2869 20.8319V21.8251C30.715 22.2201 30.0361 22.3875 29.3214 22.3875C27.5219 22.3875 26.2722 21.1308 26.2722 19.3237C26.2722 17.5283 27.5585 16.2719 29.3453 16.2719C30.0481 16.2719 30.703 16.4756 31.2271 16.8702V17.9592C30.7627 17.4569 30.1197 17.1934 29.4048 17.1934C28.154 17.1934 27.2727 18.0672 27.2727 19.3234C27.2727 20.5801 28.1662 21.4662 29.417 21.4662ZM33.3237 22.2801H32.3587V14.5095L33.3237 15.1087V17.3851C33.7645 16.7031 34.4672 16.2724 35.3605 16.2724C36.8376 16.2724 37.6236 17.3611 37.6236 18.8093V22.2801H36.647V18.9768C36.647 17.8278 36.1468 17.2177 35.1221 17.2177C34.0383 17.2177 33.3228 18.151 33.3228 19.324L33.3237 22.2801ZM43.6149 21.274C43.1268 21.9681 42.3763 22.387 41.4592 22.387C39.744 22.387 38.5172 21.1065 38.5172 19.3591C38.5172 17.5766 39.744 16.2713 41.4592 16.2713C42.3763 16.2713 43.1268 16.7022 43.6149 17.4086V16.3791H44.5917V22.2792H43.6149V21.274ZM39.5177 19.3471C39.5177 20.5679 40.3634 21.4654 41.5545 21.4654C42.7574 21.4654 43.6149 20.5679 43.6149 19.3471C43.6149 18.1024 42.7574 17.1929 41.5545 17.1929C40.3634 17.1937 39.5177 18.103 39.5177 19.348V19.3471ZM47.0574 22.2801H46.0925V16.3799H47.0574V17.6363C47.5218 16.7625 48.2723 16.2721 49.2014 16.2721V17.3851C48.034 17.2177 47.0574 18.0075 47.0574 19.4674V22.2801ZM59.0877 19.7069H54.4541C54.5971 20.7721 55.431 21.4782 56.5981 21.4782C57.3486 21.4782 58.0752 21.2628 58.6946 20.8199V21.7534C58.0633 22.1843 57.3486 22.3878 56.5981 22.3878C54.7519 22.3878 53.4303 21.1911 53.4303 19.3829C53.4303 17.6115 54.5499 16.2713 56.3248 16.2713C58.0161 16.2713 59.124 17.5278 59.124 19.2154C59.1243 19.3799 59.1121 19.5443 59.0877 19.7069ZM54.466 18.9176H58.0991C58.0038 17.9121 57.3725 17.1702 56.3362 17.1702C55.264 17.1697 54.6208 17.9238 54.466 18.9171V18.9176ZM61.1483 22.2801H60.1834V16.3799H61.1483V17.6363C61.6128 16.7625 62.363 16.2721 63.2921 16.2721V17.3851C62.1252 17.2177 61.1483 18.0075 61.1483 19.4674V22.2801ZM69.0217 19.7069H64.3884C64.5309 20.7721 65.365 21.4782 66.5321 21.4782C67.2826 21.4782 68.0092 21.2628 68.6286 20.8199V21.7534C67.9973 22.1843 67.2826 22.3878 66.5321 22.3878C64.6859 22.3878 63.3643 21.1911 63.3643 19.3829C63.3643 17.6115 64.4837 16.2713 66.2585 16.2713C67.9498 16.2713 69.0575 17.5278 69.0575 19.2154C69.0579 19.3799 69.046 19.5442 69.0217 19.7069ZM64.4003 18.9176H68.0329C67.9376 17.9121 67.3062 17.1702 66.2702 17.1702C65.1983 17.1697 64.5556 17.9238 64.4003 18.9171V18.9176ZM74.8134 21.2669C74.3373 21.9732 73.5749 22.4039 72.6577 22.4039C70.9423 22.4039 69.7154 21.1231 69.7154 19.3758C69.7154 17.5932 70.9423 16.288 72.6577 16.288C73.5749 16.288 74.3373 16.7311 74.8134 17.449V14.5109L75.7903 15.1103V22.2798H74.8134V21.2669ZM70.7162 19.3641C70.7162 20.5848 71.5617 21.4826 72.753 21.4826C73.956 21.4826 74.8134 20.5848 74.8134 19.3641C74.8134 18.1193 73.956 17.2098 72.753 17.2098C71.5617 17.2098 70.7162 18.1188 70.7162 19.3641ZM50.8873 20.3189C50.8873 21.1447 51.3875 21.4679 52.0188 21.4679C52.5092 21.4727 52.9886 21.3219 53.3887 21.037V21.9825C52.9832 22.2817 52.4238 22.4014 51.9355 22.4014C50.6848 22.4014 49.9223 21.8388 49.9223 20.2469V14.5081L50.8873 15.1073V20.3189ZM52.4469 16.3027C52.3648 16.2492 52.273 16.2124 52.1768 16.1946C52.0806 16.1767 51.9818 16.1781 51.8861 16.1985C51.7904 16.219 51.6997 16.2583 51.619 16.314C51.5384 16.3697 51.4695 16.4408 51.4163 16.5233C51.363 16.6058 51.3265 16.698 51.3087 16.7947C51.2909 16.8914 51.2922 16.9906 51.3126 17.0868C51.333 17.183 51.3721 17.2741 51.4275 17.3551C51.483 17.4361 51.5538 17.5054 51.6359 17.5589L51.6565 17.572C51.7763 17.6491 51.9156 17.6901 52.0579 17.6901C52.2002 17.6901 52.3395 17.6491 52.4594 17.572L53.4189 16.9537L52.4469 16.3027ZM28.2854 12.9577C28.9759 12.9577 29.4764 12.6585 29.4764 12.1199C29.4764 11.7967 29.3098 11.5455 28.8682 11.3658L27.4744 10.8034C26.7597 10.4922 26.3667 10.0853 26.3667 9.31924C26.3667 8.28996 27.1886 7.6436 28.3796 7.6436C29.0701 7.6436 29.7134 7.83506 30.1661 8.18224V9.20087C29.6303 8.72196 28.9748 8.44678 28.3921 8.44678C27.7724 8.44678 27.3316 8.73396 27.3316 9.21287C27.3316 9.57178 27.4985 9.78724 27.9632 9.96669L29.357 10.5293C30.1072 10.8525 30.453 11.3071 30.453 11.9415C30.453 13.0665 29.5475 13.7606 28.2735 13.7606C27.4988 13.7606 26.7961 13.5451 26.2842 13.1625V12.1079C26.9033 12.6942 27.5943 12.9577 28.2854 12.9577ZM32.2876 11.677C32.2876 12.5028 32.7876 12.826 33.4192 12.826C33.9091 12.8304 34.388 12.6796 34.7877 12.3951V13.3406C34.3822 13.6398 33.8225 13.7595 33.3342 13.7595C32.0835 13.7595 31.3216 13.1971 31.3216 11.6052V6.46133L32.2863 5.86133L32.2876 11.677ZM40.1846 12.6462C39.6963 13.3406 38.9458 13.7595 38.0286 13.7595C36.3134 13.7595 35.0866 12.4791 35.0866 10.7314C35.0866 8.94887 36.3134 7.6436 38.0286 7.6436C38.9458 7.6436 39.6963 8.07451 40.1846 8.78087V7.75215H41.1614V13.6518H40.1846V12.6462ZM36.0871 10.7197C36.0871 11.9404 36.9328 12.838 38.1239 12.838C39.3271 12.838 40.1846 11.9404 40.1846 10.7197C40.1846 9.47496 39.3271 8.56515 38.1239 8.56515C36.9328 8.56515 36.0871 9.47496 36.0871 10.7197ZM43.6268 13.6518H42.6619V7.75215H43.6268V8.75742C44.0676 8.07533 44.7703 7.64442 45.6636 7.64442C47.1407 7.64442 47.9268 8.73369 47.9268 10.1819V13.6526H46.9502V10.3496C46.9502 9.2006 46.4499 8.59024 45.4256 8.59024C44.3415 8.59024 43.626 9.52378 43.626 10.6968L43.6268 13.6518ZM53.9183 12.6225C53.4419 13.3289 52.6795 13.7598 51.7623 13.7598C50.0472 13.7598 48.8203 12.4791 48.8203 10.7314C48.8203 8.94887 50.0472 7.6436 51.7623 7.6436C52.6795 7.6436 53.4419 8.08651 53.9183 8.8046V6.46051L54.8952 5.86133V13.6518H53.9183V12.6225ZM49.8208 10.7197C49.8208 11.9404 50.6666 12.838 51.8576 12.838C53.0609 12.838 53.9183 11.9404 53.9183 10.7197C53.9183 9.47496 53.0609 8.56515 51.8576 8.56515C50.6674 8.56515 49.8208 9.47496 49.8208 10.7197ZM71.7856 12.6225C71.3093 13.3289 70.5468 13.7598 69.6297 13.7598C67.9142 13.7598 66.6874 12.4791 66.6874 10.7314C66.6874 8.94887 67.9142 7.6436 69.6297 7.6436C70.5468 7.6436 71.3093 8.08651 71.7856 8.8046V6.46051L72.7622 5.86133V13.6518H71.7856V12.6225ZM67.6881 10.7197C67.6881 11.9404 68.5336 12.838 69.7249 12.838C70.9279 12.838 71.7856 11.9404 71.7856 10.7197C71.7856 9.47496 70.9279 8.56515 69.7249 8.56515C68.5345 8.56515 67.6881 9.47496 67.6881 10.7197ZM61.0414 12.6462C60.5531 13.3406 59.8026 13.7595 58.8854 13.7595C57.1703 13.7595 55.9434 12.4791 55.9434 10.7314C55.9434 8.94887 57.1703 7.6436 58.8854 7.6436C59.8026 7.6436 60.5531 8.07451 61.0414 8.78087V7.75215H62.0183V13.6518H61.0414V12.6462ZM56.9439 10.7197C56.9439 11.9404 57.7897 12.838 58.9807 12.838C60.1837 12.838 61.0414 11.9404 61.0414 10.7197C61.0414 9.47496 60.1837 8.56515 58.9807 8.56515C57.7889 8.56515 56.9439 9.47496 56.9439 10.7197ZM64.4837 13.6518H63.5187V7.75215H64.4837V9.00887C64.9481 8.13506 65.6986 7.64442 66.6277 7.64442V8.75742C65.4603 8.58996 64.4837 9.37978 64.4837 10.84V13.6518ZM33.6475 9.00887C33.7505 9.07634 33.8684 9.11718 33.9909 9.12775C34.1134 9.13832 34.2366 9.1183 34.3495 9.06947C34.4624 9.02063 34.5616 8.9445 34.6381 8.84785C34.7147 8.7512 34.7663 8.63704 34.7883 8.51551C34.8059 8.4184 34.8042 8.31875 34.7832 8.22231C34.7622 8.12588 34.7225 8.03458 34.6661 7.95369C34.61 7.87279 34.5385 7.80383 34.4558 7.75078L34.4352 7.73796C34.3151 7.66128 34.1756 7.62078 34.0333 7.62127C33.891 7.62175 33.7519 7.66319 33.6323 7.74069L32.6733 8.36115L33.6475 9.00887Z" fill="#C8C8C8"/>
</svg>
