<svg width="105" height="33" viewBox="0 0 105 33" fill="none" xmlns="http://www.w3.org/2000/svg">
<path d="M36.8969 31.7126L42.1797 0.711885H50.6295L45.3428 31.7126H36.8969ZM75.8711 1.38017C74.1974 0.752109 71.574 0.078125 68.2982 0.078125C59.9484 0.078125 54.0674 4.28277 54.017 10.3089C53.97 14.7634 58.216 17.2486 61.421 18.7313C64.7103 20.2513 65.8158 21.2201 65.8 22.5768C65.7789 24.655 63.1734 25.6039 60.7445 25.6039C57.3627 25.6039 55.5659 25.134 52.7908 23.977L51.7016 23.4844L50.516 30.424C52.4896 31.2898 56.139 32.0392 59.9286 32.0781C68.8111 32.0781 74.5773 27.9215 74.6429 21.4862C74.6744 17.9595 72.4233 15.276 67.5482 13.0632C64.5947 11.6291 62.7859 10.6722 62.8051 9.21999C62.8051 7.9314 64.3361 6.5535 67.6446 6.5535C70.4074 6.51059 72.4094 7.11315 73.9689 7.74121L74.726 8.09895L75.8711 1.38017ZM97.6157 0.711409H91.0865C89.0639 0.711409 87.5499 1.26346 86.6618 3.28224L74.1125 31.6922H82.9857C82.9857 31.6922 84.4361 27.8724 84.7642 27.0335C85.7339 27.0335 94.3538 27.0468 95.586 27.0468C95.8387 28.1322 96.614 31.6922 96.614 31.6922H104.455L97.6157 0.71046V0.711409ZM87.2562 20.7298C87.9552 18.9437 90.6229 12.0637 90.6229 12.0637C90.5732 12.1462 91.3167 10.2688 91.7432 9.10486L92.3142 11.7777C92.3142 11.7777 93.9322 19.1777 94.2705 20.7293H87.2562V20.7298ZM29.7236 0.711409L21.451 21.8526L20.5697 17.5564C19.0295 12.6038 14.2313 7.2381 8.86719 4.55182L16.4316 31.6632L25.3719 31.6532L38.6748 0.711093L29.7236 0.710936" fill="#0E4595"/>
<path d="M13.7335 0.710938H0.108003L0 1.35594C10.6005 3.92202 17.6145 10.1233 20.5267 17.5753L17.564 3.32912C17.0526 1.36608 15.5691 0.78014 13.7339 0.711728" fill="#F2AE14"/>
</svg>
